<svg xmlns="http://www.w3.org/2000/svg" fill="none" viewBox="0 0 32 32"><path fill="#000" d="M32 16a16 16 0 11-32 0 16 16 0 0132 0z"/><path fill="#E0071B" fill-rule="evenodd" d="M16 30.53a14.53 14.53 0 100-29.06 14.53 14.53 0 000 29.06zm0 .97a15.5 15.5 0 100-31 15.5 15.5 0 000 31z" clip-rule="evenodd"/><g clip-path="url(#clip0)"><path fill="#000" d="M8.26 16.17c0-6.8 3.47-12.3 7.76-12.3 4.29 0 7.76 5.5 7.76 12.3 0 6.8-3.47 12.3-7.76 12.3-4.29 0-7.76-5.5-7.76-12.3z"/><path fill="#FF0001" d="M16.02 28.04c4.05 0 7.33-5.31 7.33-11.87S20.07 4.3 16.02 4.3c-4.05 0-7.33 5.31-7.33 11.87s3.28 11.87 7.33 11.87z"/><path fill="#000" d="M22.91 16.17v-.14c-.05-6.26-3.11-11.3-6.9-11.3-3.76 0-6.82 5.02-6.88 11.25a6.88 6.88 0 000 .38c.06 6.23 3.12 11.25 6.89 11.25 3.78 0 6.84-5.04 6.89-11.3v-.14z"/><path fill="#FF0001" d="M10 13.89a6.3 6.3 0 011.2-1.93v8.42a6.3 6.3 0 01-1.2-1.93v-4.56zM12.4 10.93c.39-.25.79-.46 1.21-.63v11.74a6.48 6.48 0 01-1.2-.63V10.93zM14.82 9.96c.4-.07.8-.11 1.2-.11v12.64c-.4 0-.8-.04-1.2-.11V9.96z"/><path fill="#fff" d="M16.46 9.86c.56.04 1.12.15 1.65.33v4.96h-1.65V9.86zM16.46 17.2h1.65v4.95c-.53.18-1.1.29-1.65.33v-5.29z"/><path fill="#FF0001" d="M16.46 16.77v-1.2h2.09v-5.22c.43.18.84.4 1.22.67v4.55h2.68a6.24 6.24 0 010 1.2h-2.68v4.55c-.38.26-.8.49-1.22.67v-5.22h-2.1z"/><path fill="#fff" d="M20.2 11.36a6.28 6.28 0 012.19 3.79h-2.18v-3.8zM20.2 17.2h2.19a6.28 6.28 0 01-2.18 3.78V17.2z"/><path fill="#fff" d="M16.02 5.15c2.98 0 5.49 3.45 6.23 8.14a6.8 6.8 0 00-2.54-2.82 7 7 0 00-9.92 2.81c.74-4.68 3.25-8.13 6.23-8.13zM16.02 27.19c-2.98 0-5.49-3.45-6.23-8.13a6.8 6.8 0 002.54 2.81 7 7 0 009.92-2.82c-.74 4.69-3.25 8.14-6.23 8.14z"/><path fill="#000" d="M16.9 8.21a1.09 1.09 0 01-1.2.27c-.2-.08-.38-.21-.5-.39a1.05 1.05 0 01.5-1.59 1.1 1.1 0 011.2.27l.32-.3a1.54 1.54 0 00-1.68-.37c-.29.1-.53.3-.7.55a1.48 1.48 0 00.7 2.24 1.56 1.56 0 001.68-.38l-.33-.3M18.03 6.5l-.8 2.6.44.08.49-1.6.36 1.84.15.05.5-1.22.53 1.74.58.37-.87-2.87-.3-.23-.38.92-.34-1.46-.36-.22M13.04 8.46l.64-1.29.28.93-.92.36zm1.26.72l.42-.08-.8-2.59-.59.37-1.74 3.54.7-.46.47-.93 1.33-.52.2.67zM14.67 24.36c-.16-.02-.37.04-.4.26-.04.2.1.35.3.39a.34.34 0 00.25-.05.33.33 0 00.15-.21c.02-.15-.05-.34-.3-.39zm.4-.5a.26.26 0 00-.05-.2.27.27 0 00-.18-.1c-.2-.04-.34.05-.37.2-.02.12.07.27.27.3.17.03.31-.05.34-.2zm-.56 1.47c-.59-.1-.73-.48-.68-.76.02-.1.07-.37.44-.46-.17-.1-.24-.25-.2-.44.06-.35.4-.5.8-.44.47.09.68.38.62.66a.43.43 0 01-.1.23.44.44 0 01-.23.13c.2.14.3.29.25.55-.05.26-.3.63-.9.53zM18.66 23.97a.33.33 0 00.2-.17.32.32 0 000-.26c-.07-.22-.23-.32-.45-.25-.1.04-.33.17-.23.45.1.29.32.29.48.23zm-.2.62a.33.33 0 00.41.08c.17-.08.31-.25.17-.66-.06.16-.22.25-.36.3-.42.14-.76-.06-.87-.39-.17-.47.07-.8.5-.94.75-.25 1.01.47 1.11.74.26.75-.05 1.13-.44 1.26-.34.11-.65.04-.8-.2l.27-.19zM13.33 22.84c-.03.09-.29.3-.61.2l-.07-.03-.08.25-.04.12.08.03c.22.07.37.07.47.03l-.45 1.3.43.15.67-1.92-.4-.13M16.69 24.36c.15-.02.32-.13.3-.37-.02-.23-.14-.37-.38-.35-.11 0-.36.08-.33.37.02.31.24.36.4.35zm-.36.55c.03.07.09.13.16.16s.15.04.23.01c.18-.03.36-.17.33-.6h-.01c-.1.15-.27.2-.42.2-.44.04-.72-.23-.75-.57-.04-.5.27-.77.72-.8.8-.07.87.7.9.98.06.8-.34 1.08-.75 1.12-.35.03-.63-.12-.73-.39l.32-.11z"/></g><defs><clipPath id="clip0"><path fill="#fff" d="M0 0h16v25H0z" transform="translate(8 3.5)"/></clipPath></defs></svg>