<svg xmlns="http://www.w3.org/2000/svg" fill="none" viewBox="0 0 32 32"><path fill="#FFB500" d="M32 16a16 16 0 11-32 0 16 16 0 0132 0z"/><g clip-path="url(#clip0)"><path fill="#000" d="M24.7 9.87l-.06-.33-.33-.07c-.03 0-2.23-.46-4.2-1.54-2.79-1.55-3.73-2.52-3.74-2.53L16 5l-.37.4c-.01 0-.96.99-3.75 2.53A16.95 16.95 0 017.7 9.47l-.33.07-.06.33c-.4 2.04-.4 4.14-.02 6.18l.17.81.05.2A16.86 16.86 0 0010.3 23a18.1 18.1 0 005.44 4.87l.26.15.26-.15A18.11 18.11 0 0021.7 23a16.86 16.86 0 002.8-5.95l.22-1c.38-2.04.37-4.14-.02-6.18"/><path fill="#F89728" d="M24.2 9.96s-2.28-.46-4.33-1.6C16.92 6.75 16 5.75 16 5.75s-.93 1-3.87 2.63C10.08 9.5 7.8 9.96 7.8 9.96c-.42 2.18-.38 4.42.1 6.6h16.2c.48-2.18.52-4.42.1-6.6"/><path fill="#B30838" d="M16 27.44a16.97 16.97 0 008.1-10.89H7.9c.99 4.4 3.8 8.36 8.1 10.89"/><path fill="#010101" d="M14.1 23.49v-.25c0-.05 0-.07-.02-.07a1.36 1.36 0 00-.25.1l-.02-.02a.03.03 0 01.02-.03 20.04 20.04 0 00.5-.32l.02.04-.01.5v.79c.01.06.02.09.08.1a1.37 1.37 0 00.14.02v.01c0 .01 0 .02-.02.02h-.66c-.02 0-.03 0-.03-.02 0-.01 0-.02.02-.02l.15-.01c.06-.02.07-.04.08-.1v-.74z"/><path stroke="#000" stroke-miterlimit="10" stroke-width=".17" d="M14.1 23.49v-.25c0-.05 0-.07-.02-.07a1.36 1.36 0 00-.25.1l-.02-.02a.03.03 0 01.02-.03 20.04 20.04 0 00.5-.32l.02.04-.01.5v.79c.01.06.02.09.08.1a1.4 1.4 0 00.14.02s0 0 0 0v.01c0 .01 0 .02-.02.02h-.66c-.02 0-.03 0-.03-.02 0-.01 0-.02.02-.02l.15-.01c.06-.02.07-.04.08-.1v-.74z"/><path fill="#010101" d="M15.83 23.42c0 .54-.48.88-.71.99h-.04a.02.02 0 01-.02-.01c0-.02.02-.03.03-.03a1.09 1.09 0 00.5-.9c0-.33-.15-.48-.3-.48-.13 0-.23.12-.23.28 0 .3.2.36.26.36a.3.3 0 00.13-.02l.04-.02h.01v.04a.35.35 0 01-.26.09.38.38 0 01-.36-.23.36.36 0 01-.03-.14c0-.26.2-.45.5-.45s.48.23.48.52"/><path stroke="#000" stroke-miterlimit="10" stroke-width=".17" d="M15.83 23.42c0 .54-.48.88-.71.99h-.04a.02.02 0 01-.02-.01c0-.02.02-.03.03-.03a1.09 1.09 0 00.5-.9c0-.33-.15-.48-.3-.48-.13 0-.23.12-.23.28 0 .3.2.36.26.36a.3.3 0 00.13-.02l.04-.02h.01v.04a.35.35 0 01-.26.09.38.38 0 01-.36-.23.36.36 0 01-.03-.14c0-.26.2-.45.5-.45s.48.23.48.52z"/><path fill="#010101" d="M16.03 24.37H16l-.01-.02c0-.02.02-.04.04-.05.27-.24.65-.54.65-.95 0-.3-.17-.36-.26-.36a.28.28 0 00-.2.07.32.32 0 00-.09.18c0 .02 0 .04-.02.04a4.93 4.93 0 010-.3c.1-.06.22-.09.34-.08.34 0 .48.18.48.4 0 .38-.41.7-.66.9v.02h.14l.33-.01c.05 0 .1-.02.14-.05a.22.22 0 00.08-.13c0-.02 0-.03.02-.03l.01.04c0 .1-.03.18-.05.27-.02.06-.05.06-.17.06h-.75z"/><path stroke="#000" stroke-miterlimit="10" stroke-width=".17" d="M16.03 24.37H16l-.01-.02c0-.02.02-.04.04-.05.27-.24.65-.54.65-.95 0-.3-.17-.36-.26-.36a.28.28 0 00-.2.07.32.32 0 00-.09.18c0 .02 0 .04-.02.04a4.93 4.93 0 010-.3c.1-.06.22-.09.34-.08.34 0 .48.18.48.4 0 .38-.41.7-.66.9v.02h.14l.33-.01a.23.23 0 00.22-.18c0-.02 0-.03.02-.03l.01.04c0 .1-.03.18-.05.27-.02.06-.05.06-.17.06h-.75z"/><path fill="#010101" d="M18.14 22.93c.04 0 .05 0 .05.02l-.02.03a4.6 4.6 0 00-.49 1.3c0 .05-.15.12-.24.12-.02 0-.03 0-.03-.02s0-.05.02-.08c.15-.41.34-.81.56-1.2h-.5c-.06 0-.12.02-.18.04a.2.2 0 00-.06.12c0 .01 0 .02-.02.02-.01 0-.02 0-.02-.03l.03-.31c0-.02.01-.03.02-.03.09.02.18.03.26.02h.62z"/><path stroke="#000" stroke-miterlimit="10" stroke-width=".17" d="M18.14 22.93c.04 0 .05 0 .05.02l-.02.03a4.6 4.6 0 00-.49 1.3c0 .05-.15.12-.24.12-.02 0-.03 0-.03-.02s0-.05.02-.08c.15-.41.34-.81.56-1.2h-.5c-.06 0-.12.02-.18.04a.2.2 0 00-.06.12c0 .01 0 .02-.02.02-.01 0-.02 0-.02-.03l.03-.31c0-.02.01-.03.02-.03.09.02.18.03.26.02h.62z"/><path fill="#C9CACC" d="M14.1 23.42v-.25c0-.05 0-.07-.02-.07a1.37 1.37 0 00-.25.1.02.02 0 01-.02-.02.04.04 0 01.02-.03 19.16 19.16 0 00.5-.32l.02.04-.01.5v.79c.01.06.02.09.08.1a1.42 1.42 0 00.14.02.02.02 0 010 .01c0 .02 0 .02-.02.02h-.66c-.02 0-.03 0-.03-.02l.02-.02.15-.01c.06-.01.07-.04.08-.1v-.74z"/><path stroke="#C9CACC" stroke-miterlimit="10" stroke-width=".17" d="M14.1 23.42v-.25c0-.05 0-.07-.02-.07a1.42 1.42 0 00-.25.1.02.02 0 01-.02-.02.04.04 0 01.02-.03 19.16 19.16 0 00.5-.32l.02.04-.01.5v.79c.01.06.02.09.08.1a1.42 1.42 0 00.14.02.02.02 0 010 .01c0 .02 0 .02-.02.02h-.66c-.02 0-.03 0-.03-.02l.02-.02.15-.01c.06-.01.07-.04.08-.1v-.74z"/><path fill="#C9CACC" d="M15.83 23.35c0 .54-.48.88-.71 1h-.04-.01v-.02c0-.02 0-.03.02-.03a1.08 1.08 0 00.5-.9c0-.33-.15-.48-.3-.48-.13 0-.23.12-.23.28 0 .3.2.37.26.37.05 0 .09 0 .13-.03l.04-.02h.01v.04a.35.35 0 01-.26.09.38.38 0 01-.36-.23.36.36 0 01-.03-.14c0-.26.2-.45.5-.45s.48.23.48.52"/><path stroke="#C9CACC" stroke-miterlimit="10" stroke-width=".17" d="M15.83 23.35c0 .54-.48.88-.71 1h-.04-.01v-.02c0-.02 0-.03.02-.03a1.08 1.08 0 00.5-.9c0-.33-.15-.48-.3-.48-.13 0-.23.12-.23.28 0 .3.2.37.26.37.05 0 .09 0 .13-.03l.04-.02h.01v.04a.35.35 0 01-.26.09.38.38 0 01-.28-.1.37.37 0 01-.11-.27c0-.26.2-.45.5-.45s.48.23.48.52z"/><path fill="#C9CACC" d="M16.03 24.3h-.01a.03.03 0 01-.02-.02c0-.02.02-.04.04-.05.27-.24.65-.54.65-.94 0-.3-.17-.37-.26-.37a.28.28 0 00-.2.07.32.32 0 00-.09.18c0 .02 0 .04-.02.04a4.68 4.68 0 01-.03-.27l.02-.04c.1-.05.23-.07.35-.07.34 0 .48.19.48.41 0 .37-.41.7-.66.9-.01 0 0 0 0 0H16.75a.23.23 0 00.22-.17c0-.03 0-.03.02-.03l.01.03c0 .1-.03.19-.05.28-.02.05-.05.05-.17.05h-.75z"/><path stroke="#C9CACC" stroke-miterlimit="10" stroke-width=".17" d="M16.03 24.3h-.01a.03.03 0 01-.02-.02c0-.02.02-.04.04-.05.27-.24.65-.54.65-.94 0-.3-.17-.37-.26-.37a.28.28 0 00-.2.07.32.32 0 00-.09.18c0 .02 0 .04-.02.04a4.69 4.69 0 01-.03-.27l.02-.04c.1-.05.23-.07.35-.07.34 0 .48.19.48.41 0 .37-.41.7-.66.9-.01 0 0 0 0 0H16.75a.23.23 0 00.22-.17c0-.03 0-.03.02-.03l.01.03c0 .1-.03.19-.05.28-.02.05-.05.05-.17.05h-.75z"/><path fill="#C9CACC" d="M18.14 22.86c.04 0 .05.01.05.02s0 .02-.02.03a4.6 4.6 0 00-.49 1.31c0 .04-.15.12-.24.12-.02 0-.03 0-.03-.03 0-.02 0-.05.02-.08.15-.41.34-.81.56-1.19h-.5c-.06 0-.12 0-.18.03a.2.2 0 00-.06.12c0 .02 0 .03-.02.03-.01 0-.02-.01-.02-.03l.03-.32c0-.02.01-.03.02-.03.09.02.18.03.26.02h.62z"/><path stroke="#C9CACC" stroke-miterlimit="10" stroke-width=".17" d="M18.14 22.86c.04 0 .05.01.05.02s0 .02-.02.03a4.6 4.6 0 00-.49 1.31c0 .04-.15.12-.24.12-.02 0-.03 0-.03-.03 0-.02 0-.05.02-.08.15-.41.34-.81.56-1.19h-.5c-.06 0-.12 0-.18.03a.2.2 0 00-.06.12c0 .02 0 .03-.02.03-.01 0-.02-.01-.02-.03l.03-.32c0-.02.01-.03.02-.03.09.02.18.03.26.02h.62z"/><path fill="#010101" d="M10.27 19.55l-.01-.76c0-.12-.04-.18-.16-.2a.77.77 0 00-.14-.01c-.04 0-.06-.01-.06-.03 0-.03.03-.04.08-.04l.5.01h.5c.24 0 .48.01.67.15a.62.62 0 01.25.49c0 .26-.11.5-.48.8.32.4.57.71.79.93.2.21.35.24.4.25h.1c.03 0 .05.02.05.04s-.03.03-.07.03h-.35c-.2 0-.29-.02-.38-.07-.16-.08-.3-.25-.5-.52l-.36-.5a.07.07 0 00-.06-.02h-.32c-.02 0-.03 0-.03.02v.05c0 .34 0 .62.02.77.01.1.03.18.14.2h.18c.03 0 .04.02.04.04s-.02.03-.07.03h-.97c-.05 0-.07 0-.07-.03 0-.02.01-.03.05-.03.05 0 .1 0 .13-.02.08-.01.1-.09.1-.2.03-.14.03-.42.03-.75v-.63zm.42.28c0 .04.01.05.04.06.09.03.18.04.27.04.15 0 .2-.01.26-.06.1-.08.21-.24.21-.54 0-.5-.34-.65-.55-.65-.07 0-.13 0-.2.02-.02 0-.03.02-.03.05v1.08zM12.6 19.86c0-.6.41-1.4 1.5-1.4.9 0 1.46.52 1.46 1.34 0 .82-.58 1.46-1.5 1.46a1.37 1.37 0 01-1.46-1.4zm2.45.07c0-.8-.46-1.3-1.06-1.3-.41 0-.89.23-.89 1.12 0 .74.42 1.33 1.11 1.33.26 0 .84-.12.84-1.15M16.12 18.56c.01-.06.04-.1.07-.1.02 0 .05.02.1.11l.98 1.99.98-2.01c.03-.06.05-.09.08-.09.04 0 .06.04.07.11l.33 2.19c.03.22.07.33.18.36.07.02.14.04.22.04.03 0 .06 0 .06.02 0 .03-.05.04-.1.04-.09 0-.59 0-.73-.02-.08 0-.1-.02-.1-.04s0-.03.03-.04c.03 0 .04-.05.02-.15l-.21-1.55h-.02L17.3 21c-.08.17-.1.2-.13.2s-.07-.07-.13-.18l-.41-.81-.38-.76h-.01l-.2 1.39v.17c0 .06.04.1.1.11l.16.02c.03 0 .05 0 .05.02 0 .03-.03.04-.09.04h-.73c-.04 0-.07 0-.07-.04 0-.02.02-.02.06-.02l.1-.01c.11-.02.14-.16.16-.29l.35-2.3z"/><path fill="#010101" d="M20.09 20.3c-.02 0-.03 0-.03.03l-.2.49a.69.69 0 00-.05.22c0 .06.03.1.14.1H20c.05 0 .06.01.06.04 0 .02-.02.03-.06.03h-.81c-.05 0-.07 0-.07-.03s.01-.03.04-.03l.11-.01c.17-.02.24-.14.31-.32l.9-2.21c.05-.1.07-.15.11-.15.03 0 .06.04.1.12l.89 2.16c.14.33.24.38.32.4h.15c.03 0 .05.01.05.04 0 .02-.04.03-.17.03h-.68c-.07 0-.11 0-.11-.03s.01-.03.05-.04a.06.06 0 00.03-.03.06.06 0 000-.05l-.29-.73a.03.03 0 00-.03-.03h-.81zm.74-.18c.01 0 .02 0 .01-.02l-.32-.88c0-.01 0-.03-.02-.03l-.02.03-.33.88.01.02h.67z"/><path fill="#F89728" d="M10.27 19.47l-.01-.76c0-.12-.04-.18-.16-.2a.85.85 0 00-.14-.01c-.04 0-.06 0-.06-.03s.03-.04.08-.04l.5.01h.5c.24 0 .48.02.67.15a.62.62 0 01.25.49c0 .26-.11.5-.48.8.32.4.57.71.79.93.2.21.35.24.4.25h.1c.03 0 .05.02.05.04s-.03.03-.07.03h-.35c-.2 0-.29-.02-.38-.07-.16-.08-.3-.25-.5-.52l-.36-.5a.08.08 0 00-.06-.02h-.32c-.02 0-.03 0-.03.02v.05c0 .34 0 .62.02.77.01.1.03.18.14.2h.18c.03 0 .04.02.04.04s-.02.03-.07.03h-.97c-.05 0-.07 0-.07-.03 0-.02.01-.03.05-.03.05 0 .1 0 .13-.02.08-.01.1-.09.1-.2.03-.14.03-.42.03-.75v-.63zm.42.28c0 .04.01.05.04.07a1 1 0 00.27.03c.15 0 .2-.01.26-.06.1-.08.21-.24.21-.54 0-.5-.34-.65-.55-.65-.07 0-.13 0-.2.02-.02 0-.03.02-.03.05v1.08zM12.6 19.78c0-.6.41-1.4 1.5-1.4.9 0 1.46.52 1.46 1.34 0 .82-.58 1.46-1.5 1.46a1.37 1.37 0 01-1.46-1.4zm2.45.07c0-.8-.46-1.3-1.06-1.3-.41 0-.89.23-.89 1.12 0 .74.42 1.33 1.11 1.33.26 0 .84-.12.84-1.15M16.12 18.48c.01-.06.04-.1.07-.1.02 0 .05.02.1.11l.98 1.99.98-2.01c.03-.06.05-.09.08-.09.04 0 .06.04.07.11l.33 2.19c.03.22.07.33.18.36l.22.04c.03 0 .06 0 .06.02 0 .03-.05.04-.1.04-.09 0-.59 0-.73-.02-.08 0-.1-.02-.1-.04s0-.03.03-.04c.03 0 .04-.05.02-.15l-.21-1.55h-.02l-.79 1.59c-.08.17-.1.2-.13.2s-.07-.07-.13-.18c-.08-.16-.37-.7-.41-.8l-.38-.77h-.01l-.2 1.39v.17c0 .06.05.1.1.11l.16.02c.03 0 .05 0 .05.02 0 .04-.03.04-.08.04h-.74c-.04 0-.07 0-.07-.04 0-.01.02-.02.06-.02l.11-.01c.1-.02.13-.16.15-.28l.35-2.3z"/><path fill="#F89728" d="M20.09 20.22c-.02 0-.03.01-.03.03l-.2.49a.7.7 0 00-.05.22c0 .06.03.1.14.1H20c.05 0 .06.01.06.04 0 .02-.02.03-.06.03h-.81c-.05 0-.07 0-.07-.03s.01-.03.04-.03l.11-.01c.17-.02.24-.14.31-.32l.9-2.21c.05-.1.07-.15.11-.15.03 0 .06.04.1.12l.89 2.16c.14.33.24.38.32.4h.15c.03 0 .05.01.05.04 0 .02-.04.03-.17.03h-.68c-.07 0-.11 0-.11-.03s.01-.03.05-.04a.06.06 0 00.04-.05v-.03l-.3-.73-.01-.02H20.09zm.74-.18c.01 0 .02 0 .01-.02l-.32-.88c0-.01 0-.03-.02-.03l-.02.03-.33.88.01.02h.67z"/><path stroke="#000" stroke-linecap="round" stroke-miterlimit="10" stroke-width=".42" d="M7.77 16.55h16.46"/><path fill="#000" d="M22.68 15.16l-.14-.18c-.23-.28-.75-.97-.75-.97 0-2.22-.4-2.64-.82-2.99a3.3 3.3 0 00-1.58-.56 3.74 3.74 0 00-.58-.04l-.62.02c-.17.01-3.11.13-4.06-.02-.4-.07-.98 0-1.32.05-.15.02-1 .15-1.1 0a.32.32 0 01-.01-.18c0-.12.06-.26-.04-.38-.12-.18-.26-.37-.34-.37l-.29.22c-.08.09-.1.23-.1.4 0 .1 0 .07-.02.08l-.69.02c0-.1-.03-.2-.1-.3-.05-.08-.1-.36-.1-.36s-.2.33-.27.42c-.07.1-.14.2-.19.32a.56.56 0 00-.02.15c0 .05-.01.1-.03.13a.4.4 0 00-.17.31c0 .05 0 .1.02.15l.02.12a.58.58 0 01-.03.02c-.1.06-.22.14-.21.29 0 .15.05.3.13.42l.06.1c.03.07.05.15.06.23.02.1-.09.23-.01.3.1.1.34.1.45.1h.27c.2.04.4.07.61.08.27.01.54.05.8.12.5.15 1 .35 1.46.6l.08.04c.18.09.22.08.3.33.1.25-.06 2.2-.1 2.4-.05.33-.16.53-.33.6-.23.07-.33.25-.42.42-.03.06-.02.13-.06.18 0 0-.07.08-.05.1.03.02.26-.03.26-.03.08 0 0 .05.07.05.2 0 .44 0 .68-.14.1 0 .03.12.13.1.29-.04.31-.26.35-.47.06-.36.05-.42.09-.45.04-.03.17.02.2-.02.03-.03 0-.28.01-.52.03-.35.1-.7.22-1.04V15l.1-.25c.09-.24.2-.54.19-.78.1.02.12.03.18.1l.04.07c.11.18.17.24.24.24h.03c.12-.04.19-.14.26-.28.06-.13.14-.26.25-.29h.02c.09 0 .26.08.35.22.2.32.38.1.4.07l.23-.37c.05-.07.08-.08.1-.08.1.02.54.54.7.5.14-.02.31-.59.4-.59h.02l.11.15c.12.18.14.3.24.3.03 0 .08-.03.1-.1l.06-.12s.08.27.27.03c.02-.06.37.28.54.41l.3.27c.36.32.8.72.9 1.15.05.27.03.54-.04.8a.2.2 0 01-.04.1.24.24 0 01-.1.02h-.08c-.13.01-.21.14-.29.26l-.1.13a.1.1 0 00.04.12c.1.03.2.06.31.07l.06-.01a.5.5 0 00.17.03c.2 0 .44-.08.5-.22a4.68 4.68 0 00.3-.79l.07-.17c.09-.22.23-.45.17-.67-.04-.11-.15-.22-.23-.32l-.39-.52c.24.22.88.55 1.04.93.06.14 0 .7-.01.85l-.01.21c-.01.23-.08.28-.31.3-.2.02-.3.32-.35.48v.02l-.03.07.08.02c.03 0 .06 0 .1.02.14.02.4.11.56.11.2 0 .35-.05.44-.14.12-.13.17-.36.2-.56l.14-.44c.19-.6.38-.84.05-1.2zM9.62 12.2c-.07.05-.1-.08-.1-.08-.02-.05-.02-.1 0-.12.06.04.13.04.15.07a.13.13 0 01-.05.13"/><path fill="#C9CACC" d="M21.73 16.93c-.02.04-.1.05-.13.06-.05.02-.1.05-.1.1v.21c0 .02.08.05.1.02l.01-.23c0-.02.02-.07.04-.08.01 0 .1-.05.08-.08M15.15 13.67c.07 0 .17-.02.2 0 .04.04.07.1.08.16 0 .06-.18.33-.19.34-.01.02-.03.05-.06.01s-.08-.46-.08-.46-.01-.04.05-.05"/><path fill="#C9CACC" d="M22.61 15.3c-.1-.14-.33-.38-.42-.5l-.7-.81s-.17-1-.24-1.24c-.05-.14-.17-1.2-1-1.78.04-.08.58.34.78.67.35.59.5 2.13.5 2.13s.23-2.36-1.04-2.85c-.9-.38-1.35-.32-1.35-.32s-.63.37-.25 1.08c.07.14.9 1.39.95 1.48.47.87 1.96 1.88 2.23 2.16.01.01.27.18.29.36 0 .03-.35-.2-.35-.16.05.44 0 1.27 0 1.37-.01.11-.02.13-.09.15-.07.02-.14-.04-.18.07-.04.13-.03.22.1.22.1 0 .29.07.4-.36.12-.44.37-1.2.44-1.49.02-.07-.04-.14-.07-.18M10 9.98s.1.28.1.37c0 .08-.03.08-.03.08l-.3.13a.6.6 0 00.1-.17c.04-.09.13-.33.13-.41M13.51 17.22h-.01l-.02-.02v-.02h.04l.02.02-.01.01-.02.01zM20.3 16.76a.06.06 0 00-.05.01.57.57 0 00-.04.18.08.08 0 00.1.02c.06-.02.19-.12.15-.15a.64.64 0 00-.15-.06M20.2 16.7c-.04 0-.07 0-.09.02a.32.32 0 00-.07.15c0 .03.05.09.07.05.03-.03.15-.23.08-.23M9.4 11.46c-.06.1.13.19.17.13a.11.11 0 00-.03-.13.12.12 0 00-.14 0M9.65 11.51zM10.94 11.64c-.1-.11-.17-.3-.1-.34.06-.03.12.02.16.04.05.03.08 0 .08-.07l-.02-.16a.83.83 0 00-.17-.41c-.11-.12-.43-.26-.63-.12-.06.04-.1.1-.14.17 0 .03.03.06.02.1-.08.18-.18.35-.32.5 0 .01.45.05 1.08.5.05.04-.05.27-.1.26-.01 0 .07-.2.01-.23-.29-.16-.46-.18-.68-.25-.05-.02-.2.07-.24.04a.85.85 0 00-.24-.16s.03.02.04.09c.02.17-.32 0-.03.28.08.08.15.14.21.11.1 0 .05.01.06.03l.05.12c0 .02.02.02.02 0l.02-.12a.05.05 0 01.05-.04l.52.01c.08.01.09.04.09.04a.1.1 0 01-.03.13c-.06.04-.18-.04-.28.04-.1.06-.2.1-.3.12l-.04-.01a.05.05 0 01-.03-.03l-.05-.1c0-.03-.02-.03-.02 0l-.01.14c0 .03-.01.04-.02.05l-.03-.04a.03.03 0 00-.02-.03.03.03 0 00-.03.01l-.02.03-.01.01h-.02-.01l-.01-.01-.01-.02c-.01-.02-.03-.02-.04 0l-.02.03c-.01.02-.03.02-.04 0v-.02c0-.02-.02-.02-.03 0 0 .01-.02.02-.03 0l-.03.04s-.04.03-.04.06c0 .02.03.03.18.06.14.03.83-.24 1.05-.2.25.05.34-.15.36-.41v-.04l-.16-.2"/><path fill="#000" d="M10.26 10.85s.09-.15.2-.18c.07-.02.15.02.28.1.12.08.18.2.3.17.04 0-.1.14-.2.1-.04-.01-.21-.3-.38-.3a.43.43 0 00-.2.1"/><path fill="#000" d="M10.57 10.7a.22.22 0 00-.22.06c.04-.09.2-.03.28 0 .04.02.1.1.14.19a.32.32 0 00-.16-.1c-.11-.01-.12.13-.12.13l-.06.07.1.01c.08 0 .37 0 .4-.04.04-.03-.2-.27-.36-.31zm.04.31a.06.06 0 01-.05-.06.06.06 0 01.05-.05.06.06 0 01.05.06l-.01.04a.06.06 0 01-.04.01"/><path fill="#C9CACC" d="M12.79 17.1s-.11.2-.11.23l.01.04.08-.01c.06-.08.1-.17.15-.27a.1.1 0 00-.13 0zM21.3 15.5c.05-.2-.13-.22-.2.03-.01.09-.26 1-.3 1.23 0 0 .02.02.03 0 0 .09.45-1.18.47-1.26M19.87 12.47h-.03l-.09-.01-.02-.02.03-.01.09.01.02.02zM19.84 12.5l-.02.01h-.06l-.02-.02v-.01l.02-.01.06.01.02.01v.01zM13.14 10.58c-.44.09-1.06.12-1.4.08-.26-.04-.28-.2-.23-.34-.25.24-.38.14-.38.11-.01-.04.09 0 .15-.06.07-.06.1-.3.06-.4-.05-.11 0-.1 0-.1a.26.26 0 01.2.19c.04-.17-.19-.37-.26-.32-.08.04-.23.16-.2.34.02.22 0 .33-.07.32-.48-.02-1.02-.08-1.32.23 0 0 .36-.24.64-.21.28.02.85.08.89.74v.32c.01.1-.08.04-.08.08 0 .18.14.15.13.31-.05.65-.35.64-.35.64s.37.05.55-.56c0 .35-.04.44-.18.58.28.01.5-.25.5-.29.05.07.13.28.34.37-.1-.17-.08-.37-.06-.56.07.41.17.56.38.65a.65.65 0 01-.2-.6c.04.28.37.54.37.54-.08-.15-.12-.3-.13-.47.14.3.3.33.3.33a1.13 1.13 0 01-.28-.57s.16.22.3.22c-.1-.13-.28-.31-.3-.54.11.14.2.23.31.24-.12-.16-.2-.34-.22-.54.12.15.1.2.33.26-.1-.08-.15-.31-.1-.42.03.07.18.15.36.17-.06-.03-.15-.25-.14-.34a.8.8 0 00.4.08c-.07-.04-.12-.23-.1-.27a1 1 0 00.36 0c-.09-.05-.16-.13-.14-.13.06.03.16-.03.3-.05.08-.02.17-.02.26-.02-.09-.04-.64-.1-.99 0M17.6 13.3s-.28-.01-.3.07c-.03.09.12.54.15.6.03.09.13-.11.13-.11l.15-.36c0-.05 0-.2-.13-.2M18.96 13.85l-.05.02h.04l.01-.02M16.5 13.35s-.3-.02-.31.07c-.02.08.1.48.12.54.02.08.08-.05.08-.05.03-.05.26-.33.26-.37 0-.04-.03-.2-.16-.19"/><path fill="#C9CACC" d="M18.48 10.6c-.1 0-.83.08-1.32.08-.4 0-.81-.02-1.03 0a.3.3 0 00-.07 0c-.33-.02-1.39-.04-1.39-.04a1.64 1.64 0 00-1.3 1.44c-.1.72-.05.95.11 1.3.1.2.3.58.3.87-.01.13-.23-.51-.23-.44.03.74-.1 2.42-.17 2.78-.1.42-.18.2-.28.38l-.23.43.22-.02c.13 0 .24-.36.33-.36.01 0-.1.28-.08.28.09-.02.24-.06.23.01a.07.07 0 00.08-.03c.03-.03.15-.57.22-.86.02-.04.14-.01.18 0 .06-.13-.04-.58.15-1.2.19-.6.39-1.12.3-1.28-.01-.02-.33.41-.34.4-.02-.05 1.06-1.84.85-2.77l-.02-.1s.12.05.28.09c.2.06.38.1.44.32.07.45.28 1.08.7 1.12-.19-.18-.43-1.07-.4-1.43.12.6.48 1.46.79 1.42a2.6 2.6 0 01-.32-.98c.11.28.37.9.57.9.51.02.65-.21 1.03-.3.85-.19 1.07.13 1.2.2a7.9 7.9 0 01-.7-1.2c-.18-.37.14-.75.68-.98.1-.05-.61-.04-.78-.04"/><path fill="#000" d="M18.84 13.86a.14.14 0 00-.05-.03h-.02-.02a.03.03 0 01.03-.03l.03.01a.07.07 0 01.04.05l.01.02-.02-.02zM18.6 13.82a.03.03 0 01.03-.03h.03l.01.02h.01l-.02.02a.1.1 0 00-.05 0h-.01v-.01z"/><path fill="#000" d="M18.66 13.8l.01.01-.01.01h-.06s.01-.03.06-.02"/><path fill="#000" d="M19.12 17.04c-.3 0-.34-.48-.34-.57a.42.42 0 01-.21-.1h-.01v.1l.02.24a.23.23 0 01-.23.29l-.1-.01h-.03l-.11-.02h-.01l-.27.01h-.02a.3.3 0 01-.19-.08.14.14 0 010-.19v-.01l.02-.02a3.6 3.6 0 01.27-.14c-.08-.15-.42-.67-.12-.83.14-.07.29-.12.44-.16a.28.28 0 000-.11.3.3 0 01-.12.04h-.04c-.1-.03-.24-.18-.25-.2a5.77 5.77 0 01-.2-.33c-.08 0-.16 0-.24-.02-.03 0-.05-.02-.2-.13a.16.16 0 01-.06-.15.13.13 0 01.08-.1.16.16 0 01.1-.06h.04c.03 0 .06 0 .09.02l.01-.05a.16.16 0 01.15-.08.3.3 0 01.11.03h.02l.01.01.11.04c.04.01.07.03.13.15l.11.1a.48.48 0 01.13-.18.29.29 0 01.11-.05h.03a.3.3 0 01.06-.04v-.02a1.9 1.9 0 01-.05-.08.28.28 0 01-.04-.18v-.01c.01-.11.16-.21.16-.21a.27.27 0 01.05-.03l.11-.12a.3.3 0 01.1-.06c.04-.06.1-.09.2-.09l.18.01a.2.2 0 01.15.12.17.17 0 01.1.15l.03.03c.03.03.06.07.07.12a.54.54 0 01-.04.44l-.02.03c.12.07.16.23.17.3 0 .04.05.2.08.3.02.1 0 .2-.03.3v.01l-.01.02-.08.1a.22.22 0 01-.12.07l.03.16c.08.1.13.2.15.33a.3.3 0 01-.03.1c.01.05.02.1.01.15a.83.83 0 01.12.2c.18.38-.27.41-.3.4-.05.05-.24.06-.28.06"/><path fill="#C9CACC" d="M19.1 13.78l-.16-.01c-.13 0-.06.06-.06.06-.05 0-.1.03-.15.06l-.13.13a.34.34 0 00-.05.03.21.21 0 00-.1.1c0 .05 0 .1.02.13l.07.1a.06.06 0 010 .05l-.03.1a.38.38 0 00-.08.05c-.02.02-.1.03-.13.05a.4.4 0 00-.12.2.31.31 0 00-.07.1l-.24-.24s-.03-.1-.08-.11c-.01-.01-.12-.04-.14-.06-.09-.03-.1 0-.09.02a.3.3 0 00.09.06c.01 0 .02.1-.2.06l-.11-.05c-.1-.03-.08.06-.06.08l.14.12.29.02.21.38c.05.06.1.1.18.14a.28.28 0 00.23-.15l.02.46s-.43.1-.5.16c-.17.12.12.6.21.73.03.04.01.05.01.05s-.3.16-.3.18a.07.07 0 00-.05 0s-.02.03 0 .04c.02.02.06.04.1.04l.3-.02.14.02c.05.02.1.02.15 0 .05-.03.05-.08.04-.13l-.02-.25-.01-.26a.7.7 0 00.17.02c.03-.02.06.03.06.03s.1.08.14.07c.05 0 .06 0 .08-.07.01-.03.03-.02.03.04s-.03.62.24.6c.1 0 .2-.03.28-.08a.1.1 0 00.1.04c.18-.06.09-.21.07-.23-.01-.03-.09-.2-.14-.2 0-.07 0-.13-.02-.2a.34.34 0 00.04-.1.6.6 0 00-.14-.29 2.6 2.6 0 00-.1-.37l.13.04a.08.08 0 00.08-.03l.07-.1a.44.44 0 00.02-.23 7 7 0 00-.08-.3s-.02-.18-.12-.22c-.09-.04-.1-.03-.1-.03s-.03-.04-.01-.05a.2.2 0 00.06-.05.33.33 0 00.03-.07s.05-.03.05-.18c.01-.05 0-.1-.02-.15a.1.1 0 00-.03-.08l-.06-.06s0-.08-.03-.08a.68.68 0 01-.06-.02s0-.08-.07-.1"/><path fill="#000" d="M18.61 14.06c.03 0 .05.04.05.05h-.02c-.01 0-.02-.02-.05-.02-.03 0-.03.02-.04.02-.02 0 .03-.05.06-.05M18.84 13.98a.07.07 0 01.04.04.15.15 0 00-.06-.03h-.03s0-.03.05-.01M19.14 14.22l-.01-.02h-.01a.05.05 0 01-.05.03l-.03-.01a.04.04 0 00.04.04.08.08 0 00.06-.03v-.01zM19.28 15.65l-.02-.13-.02-.04-.23-.42v-.02l-.04-.03V15c.1 0 .18-.02.26-.05 0 .02.23.27.25.26a2.5 2.5 0 00-.23-.32l.02-.15a.17.17 0 00-.1-.08l-.02-.01v-.01l-.04-.07.1.03h.02l.02-.03-.19-.06a.08.08 0 01-.04-.07c0-.02.14-.15.11-.16-.05-.01-.17.11-.17.15 0 .04.01.07.03.1l-.01.04c-.23.01-.32.1-.33.14l.26-.09c-.05.04.02.12.02.12a.05.05 0 00-.05 0c-.05.04 0 .1 0 .12l-.03.01c-.02.03.02.08.05.12.02.01-.05 0-.25-.14 0 .15.24.23.32.23l.31.57zm-.39-.75c.02-.02.05.02.06.01.02 0-.07-.11-.05-.13.04-.02.08.06.1.04v-.03l-.04-.08s-.05-.06-.02-.08c.03 0 .06.04.06.05 0 0 .06.1.08.08.02-.01-.04-.15-.04-.15 0-.01-.03-.05-.02-.06.02 0 .03 0 .07.04l.1.17v-.06c.01.02.05.03.05.05a.3.3 0 01-.02.1c-.09.07-.2.1-.3.11 0 0-.04-.04-.03-.06M18.34 15.63l-.03.02-.05.03c.01.02.2.48.4.63v-.02c-.15-.2-.26-.42-.32-.66M19.07 15.87c-.12.01-.2.4-.2.4.03-.04.03.02.03.02s.1-.32.17-.36a.5.5 0 01.21-.02.32.32 0 00-.21-.04M18.16 15.26c.02 0-.03-.37-.03-.37l-.02.02-.03-.02c-.01.03.07.38.08.37zM18.25 14.97l.03.3.05-.03-.02-.22h.04s-.04-.05-.04-.1c0-.04.04-.1.03-.1h-.02v-.1a.37.37 0 01.06-.1.21.21 0 00-.13.16v.1l-.02.04.02.05zM19.46 16.4s0 .37-.09.46h.05a.8.8 0 00.06-.18v-.24l-.02-.03zM18.12 15.91c-.01.08.3.37.3.37l.1-.04s-.31-.22-.4-.33z"/><path fill="#000" d="M18.99 13.91a.1.1 0 010 .05s-.01.04.04.06l.06.06v.01c.02.01.02.02.01.05v.02a.02.02 0 00-.02.02.07.07 0 00.04.05s.02.02 0 .05v.02c-.02.04 0 .14.02.13.03 0 .02-.1.03-.1a.17.17 0 00.02-.1v-.02h-.01c-.03-.02-.03-.03-.03-.04l.02-.03a.1.1 0 000-.06.24.24 0 00-.09-.09c-.02 0-.03-.02-.03-.03v-.02-.05a.22.22 0 00-.2-.1l-.04.06s.08-.04.18.06M18.38 14.6c.08.02.15.05.22.1.02-.03-.12-.11-.18-.13h-.05l.01.02M17.97 16.65c-.11-.16-.37-.17-.46-.09l-.01-.01a2.28 2.28 0 00-.2-.12.52.52 0 00-.12-.1c-.1-.06-.2-.1-.3-.11a.92.92 0 00-.04-.3l.02-.33c.07.02.15.03.22.03.04 0 .07 0 .1-.02.07-.01.19-.05.23-.13l.01-.01v-.02a.4.4 0 00-.05-.3c-.1-.13-.2-.25-.32-.36a3.12 3.12 0 000-.17 1.76 1.76 0 00-.2-.22.27.27 0 00-.13-.04h-.04c-.11.03-.1.2-.1.21a.47.47 0 00-.04-.02.28.28 0 00-.15-.08.21.21 0 00-.14-.04.13.13 0 00-.1.04.24.24 0 00-.14.09.26.26 0 00-.1.1.32.32 0 00-.1.14v.03a.35.35 0 00-.04.21.3.3 0 00-.2.15l-.05.15c-.03 0-.34.04-.33.18a.15.15 0 00.06.12.14.14 0 000 .15c.02.03.05.06.08.07.02.04.03.08.06.11l.1.09a.64.64 0 00-.19.09c-.08.05-.21.18-.1.37.02.03.07.1.34.36 0 0-.22.4.13.41.08.13.35-.06.36-.06.02 0 .39 0 .29-.27l.16-.04a.8.8 0 00.18.06 1.35 1.35 0 00.26-.01h.04c.05.06.1.13.18.17l.37.18c.01.01.16.13.26.13.31 0 .21-.28.22-.3.02-.06.07-.38-.02-.5"/><path fill="#C9CACC" d="M16.89 15.18a.6.6 0 00-.18-.05.25.25 0 00-.07-.04s.07-.05.07-.1c-.05-.26-.14-.28-.14-.28a.14.14 0 00-.11-.07c-.01-.05-.12-.06-.12-.06a.1.1 0 00-.07-.03.07.07 0 00-.07.03.12.12 0 00-.1.06.14.14 0 00-.1.09s-.03.01-.07.1a.33.33 0 00-.04.17l.05.1a.27.27 0 01-.08.04c-.04.01-.13.02-.17.1l-.1.23a.15.15 0 00-.05-.02c-.06 0-.11 0-.17.02-.01.01-.06.02-.06.04 0 .05.1.03.1.03l-.03.12s-.04.04-.03.06a.04.04 0 00.04.02c.02 0 .04-.03.04-.03 0 .06.02.12.05.18a.3.3 0 00.12.09.1.1 0 00.07 0 .26.26 0 00.1-.09l.03-.08.04-.11.03.01v.22a.97.97 0 00-.09.2c-.04 0-.24-.02-.4.1-.15.1-.1.18-.07.23.02.04.44.44.46.46 0 .01 0 .03-.02.03h-.04s-.07-.03-.08 0c-.02.06.04.05.05.06 0 .02-.06 0-.07.03a.11.11 0 00.03.1c.02.03.06.02.08.02 0 0 .01.03.05.04.07.02.23-.1.26-.1a.14.14 0 00.1 0 .14.14 0 00.07-.08l-.01-.1a.5.5 0 00-.07-.09l.08-.02h.03c.04.02.09.02.14.03l.15-.05c.05.03.1.05.16.06h.22l.13-.04c.03.09.1.16.17.22.1.06.38.18.38.18s.12.11.19.11c.02 0 .04 0 .06-.02a.09.09 0 00.03-.05l.01-.14.04-.23c0-.05.02-.22-.14-.24l-.09-.01c-.02 0 0 .05-.02.03 0 0 0-.02-.02-.02h-.02a.06.06 0 00-.04.05v.08l-.16-.13c-.03-.03-.19-.11-.19-.11a.78.78 0 00-.1-.1.9.9 0 00-.36-.11c0-.1 0-.3-.05-.4 0-.03.03-.32 0-.4 0-.03.05-.05.08-.05s.28.05.35.02c0 0 .13-.03.16-.08a.29.29 0 00-.04-.2c-.1-.14-.22-.26-.34-.38v-.16-.03l-.14-.15a.12.12 0 00-.08-.02v.06l.04.04.02.04-.02.02v.07l.03.02s-.02.05-.04.05c-.02-.03-.05-.11-.08-.08a.06.06 0 00-.01.06c.01.05.03.1.06.14l.03.03c.06.08.1.17.15.26"/><path fill="#000" d="M15.54 16.23c.2-.03.57.6.58.6.01.02.04-.01.04-.01-.02-.03-.34-.68-.62-.6M15.51 15.57c.04 0 .1-.07.09-.07-.01 0-.04.04-.1.04l-.06-.01-.06.02v.02h.13M15.82 15.2c-.05 0 0 .57 0 .57l.05-.06-.01-.22c.01.01.2-.03.25-.1a.9.9 0 01-.17.02c-.06-.01-.08-.04-.08-.06 0 0-.02-.15-.04-.15"/><path fill="#000" d="M15.79 16.1l-.04.02c.28.15.45.68.45.69l.1.03s-.22-.62-.51-.75M16.45 16.81c.01.02.07-.01.07-.01 0-.18.08-.35.2-.47 0 0-.22.05-.27.48M17.59 16.77l-.05-.04a1.08 1.08 0 01.02.18h-.01c-.02.03 0 .1 0 .1a.38.38 0 01.04-.07c.02-.01.02-.02.01-.07l-.01-.1M16.76 15.2a.6.6 0 00-.03.15.08.08 0 01-.04.06.08.08 0 01-.07.01.63.63 0 01-.14-.03c.04.07.2.1.24.16l.02.09h.03v-.12h.04c-.02-.24-.04-.33-.05-.33M16.08 15.09l-.16.01-.1.02.03.02a1.39 1.39 0 01.26-.02c.07.02.16.05.17.04a.44.44 0 00-.16-.07.3.3 0 00-.04 0M16.73 15.13v-.01h.01v-.01l-.04-.03h-.2c-.05 0-.2.06-.19.08l.2-.05c.07 0 .14 0 .22.02M16.57 14.76c.04-.04-.03-.08-.03-.09 0 0 .05.07 0 .05-.03-.06-.17-.1-.17-.1-.01-.01.01-.04.09.02 0 0-.04-.05-.1-.05l-.02-.02h-.01s.02.02 0 .02l-.02-.02c0-.02-.04 0-.02.02l.02.01c.01 0 0 0 0 0h-.04a.1.1 0 00-.04 0c0 .01-.01 0 0 0h.01c.03-.03-.01-.06-.02-.01l-.02.01c-.02 0 0-.03 0-.03l-.01.03c-.01 0-.09 0-.1.04.06-.04.09-.04.08-.02l-.1.07-.05.06c-.02 0-.02-.02 0-.05-.04.03-.03.06-.02.08a.17.17 0 000 .14c.05.05.1.1.17.13 0 0-.14-.13-.15-.18-.02-.13.15-.24.21-.25a.05.05 0 00.04.02c.04 0 .05-.02.05-.02.04 0 .25.08.23.23 0 .05-.03.1-.02.11l.04-.06a.16.16 0 000-.14M17.12 15.45l-.25-.3h-.01-.04c.07.1.14.19.23.26l.07.04M15.73 16.9l.03.05a.22.22 0 01.08-.1c.05-.03.1-.05.17-.06-.14-.04-.27.06-.28.11M15.66 15.81c.03 0 .04-.02.04-.05a.17.17 0 00.04-.07c.02.06.05.2.02.22l-.03.04.04-.02a.07.07 0 00.03-.08l-.04-.23a.13.13 0 00-.07-.11.14.14 0 00-.05-.02s.1.07.09.15c-.01.07-.03.07-.03.07l-.01-.01v.04c0 .02-.01.03-.03.03-.04 0-.07.05-.11.04-.04-.01-.06-.05-.09-.07-.02-.01.01-.05.01-.05l-.01-.02-.03.04s-.02.06.01.08c.06.04.04.04.1.06.08.02.07-.04.12-.04M18.58 13.86a.12.12 0 01-.12-.11l-.08-.19c-.2-.45-.18-.28-.16-.35.03-.13.21-.15.34-.15h.06c.07 0 .12.03.17.07.06.06.09.14.09.22l-.15.39c-.07.11-.13.12-.15.12z"/><path fill="#C9CACC" d="M18.62 13.16s-.28-.02-.3.07c-.03.09.17.41.24.5.04.07.09-.04.09-.04.05-.1.1-.22.13-.34 0-.04-.03-.19-.16-.19"/><path fill="#000" d="M10.57 10.38s.79.05.93.93c.04-.16-.14-.7-.36-.82-.03-.02-.13-.06-.05-.22a.88.88 0 00-.52.11M14.34 10.74s.48-.18.6.59c.05-.28-.01-.62-.21-.72-.2-.1-.39.13-.39.13M12.07 11.56s.05.16.1.2c.05.02.18-.18.18-.18s-.1.24-.17.3c-.07-.05-.1-.1-.11-.32"/><path fill="#000" d="M12.26 11.74s.08.16.13.19.17-.16.17-.16-.1.25-.16.3c-.05-.05-.14-.11-.14-.33zM11.81 12.01s.1.17.15.2c.1.03.1-.22.1-.22s.05.28-.06.37c-.09-.05-.13-.08-.19-.35"/><path fill="#000" d="M12.05 11.9s.05.16.1.2c.05.03.15-.24.15-.24s-.03.27-.1.4a.48.48 0 01-.15-.35"/><path fill="#000" d="M12.25 12.03c.04.07.09.12.15.17.06.02.1-.2.1-.2s.01.26-.06.33a.37.37 0 01-.2-.3M12.3 11.4s.1.2.15.23c.06.03.15-.2.15-.2s-.04.25-.15.32c-.07-.06-.1-.1-.15-.36"/><path fill="#000" d="M12.15 11.22s.06.15.1.17c.06.03.15-.17.15-.17s-.06.26-.14.34c-.05-.05-.08-.12-.11-.34M12.46 11.16s.05.13.1.16c.04.03.1-.08.1-.08s-.02.18-.1.2c-.04-.03-.07-.09-.1-.28M12.7 11.01s.03.12.07.15c.03.03.1-.09.1-.09a.27.27 0 01-.1.2c-.04-.04-.09-.1-.07-.26M12.93 10.83s.02.12.06.15c.04.03.1-.09.1-.09s0 .17-.1.19a.39.39 0 01-.06-.25M11.86 11.71s.09.15.12.15c.04 0 .12-.15.12-.15s-.04.2-.12.25a.43.43 0 01-.12-.25"/><path fill="#000" d="M12.35 11.03s.04.12.08.14c.03.03.1-.09.1-.09s-.03.17-.1.22c-.03-.03-.09-.1-.08-.27"/><path fill="#C9CACC" d="M15.9 12.93c-.14-.05-.3-.32-.35-.44-.05-.12-.14-.46-.09-.59a3.3 3.3 0 00.44 1.03"/><path fill="#000" d="M18.78 16.46c-.03-.05-.15-.1-.21-.1-.05-.02-.06-.02-.07.03v.13c.02.08.03.06.1.06a1 1 0 00.15.01c.05 0 .06 0 .06-.05 0-.03 0-.07-.03-.09"/></g><defs><clipPath id="clip0"><path fill="#fff" d="M0 0h18v23H0z" transform="translate(7 5)"/></clipPath></defs></svg>