<svg width="24" height="24" fill="none" xmlns="http://www.w3.org/2000/svg"><path d="M23.64 14.9A12 12 0 11.36 9.1a12 12 0 0123.28 5.8z" fill="#1E1E1E"/><path d="M12 18c-4.7 0-8.5-1.38-8.5-3.22 0-.97 1.04-1.83 2.7-2.45 1.29.85 3.46 1.28 5.93 1.28 2.4 0 4.53-.53 5.83-1.34 1.57.6 2.54 1.45 2.54 2.38C20.5 16.5 16.7 18 12 18z" fill="#fff"/><path d="M12.05 13.2c-3.56 0-6.44-1.14-6.44-2.54 0-.77.88-1.47 2.28-1.93 1 .53 2.49.87 4.16.87s3.16-.34 4.16-.87c1.4.47 2.28 1.16 2.28 1.93 0 1.4-2.88 2.54-6.44 2.54z" fill="#fff"/><path d="M12.03 9.18c-2.75 0-4.99-.94-4.99-2.1C7.04 5.95 9.28 5 12.03 5S17 5.94 17 7.09s-2.23 2.09-4.98 2.09z" fill="#fff"/></svg>