<svg xmlns="http://www.w3.org/2000/svg" fill="none" viewBox="0 0 32 32"><path fill="#00539F" d="M32 16c0 8.837-7.163 16-16 16S0 24.837 0 16 7.163 0 16 0s16 7.163 16 16z"/><path fill="#DEB408" fill-rule="evenodd" d="M16 30.531c8.025 0 14.531-6.506 14.531-14.531S24.025 1.469 16 1.469 1.469 7.975 1.469 16 7.975 30.531 16 30.531zm0 .969c8.56 0 15.5-6.94 15.5-15.5C31.5 7.44 24.56.5 16 .5 7.44.5.5 7.44.5 16c0 8.56 6.94 15.5 15.5 15.5z" clip-rule="evenodd"/><path fill="#000" d="M18.828 6.167c-.932.639-1.83.937-2.828.937-.997 0-1.896-.298-2.828-.937L12.929 6l-.247.161c-1.053.69-1.91.816-3.216.816-.45 0-.934-.084-1.4-.243l-.31-.106-.19.265c-.1.141-.174.23-.246.317a3.11 3.11 0 00-.271.364l-.158.25.18.237c.798 1.048 1.099 2.126 1.099 3.14 0 1.893-1.048 3.566-1.873 4.411L6 15.917l.303.3c.163.16.453.456.692.705l-.01.13-.001.024c-.01.184-.015.365-.015.543 0 1.922.575 3.52 1.713 4.756 1.318 1.431 3.378 2.286 5.813 2.419.605.544 1.22.995 1.247 1.015l.26.191.26-.191c.028-.02.639-.472 1.243-1.015 2.435-.133 4.495-.988 5.813-2.419 1.138-1.236 1.713-2.834 1.713-4.756 0-.178-.005-.359-.014-.543v-.004l-.003-.024s-.008-.116-.01-.126c.223-.23.522-.537.693-.706l.303-.299-.297-.305c-.825-.845-1.873-2.518-1.873-4.41 0-1.015.301-2.093 1.1-3.141l.18-.236-.158-.25c-.099-.157-.183-.258-.272-.365-.072-.086-.146-.176-.247-.317l-.188-.265-.31.106c-.466.159-.95.242-1.401.242-1.306 0-2.163-.126-3.216-.815L19.07 6l-.243.167z"/><path fill="#DEB408" d="M16.002 25.463s-.696-.51-1.325-1.09c-4.114-.168-7.518-2.447-7.258-7.274.015-.127.002-.119.025-.336a52.297 52.297 0 00-.833-.852c1.476-1.512 3.198-4.972.808-8.11.157-.249.27-.332.505-.66a4.834 4.834 0 001.542.266c1.37 0 2.307-.134 3.457-.887.91.624 1.896 1.014 3.077 1.014s2.168-.39 3.077-1.014c1.15.753 2.086.887 3.457.887.534 0 1.065-.103 1.543-.266.233.328.347.411.504.66-2.39 3.138-.668 6.598.808 8.11-.206.203-.597.606-.832.852.022.217.009.209.024.336.26 4.827-3.144 7.106-7.258 7.274-.629.58-1.321 1.09-1.321 1.09z"/><path fill="#000" d="M8.2 16.811H8.14l-.025.208-.017.134c-.096 1.859.373 3.36 1.394 4.467 1.172 1.27 3.07 1.993 5.489 2.092h.04c.726.004 1.411.008 1.995 0 2.42-.1 4.318-.822 5.49-2.091 1.021-1.107 1.49-2.609 1.395-4.465l-.018-.138-.025-.204-.058-.003H8.199z"/><path fill="#00539F" d="M8.257 16.94l-.012.099-.016.124a8.86 8.86 0 00-.012.457c0 1.61.46 2.925 1.373 3.913.218.237.462.453.73.65V16.94H8.257zM23.771 17.166l-.017-.128-.011-.098H21.68v5.243c.268-.197.512-.413.73-.65.913-.988 1.373-2.303 1.373-3.911 0-.15-.004-.302-.012-.456z"/><path fill="#A2224C" d="M12.592 16.94H10.32v5.243c.629.462 1.392.814 2.272 1.052V16.94zM19.408 16.94v6.295c.88-.238 1.643-.59 2.272-1.052V16.94h-2.272z"/><path fill="#00539F" d="M13.822 20.17c0-.777.417-1.458 1.042-1.836V16.94h-2.272v6.295c.689.186 1.449.3 2.272.342v-1.572a2.144 2.144 0 01-1.042-1.835zM17.136 16.94v1.394a2.145 2.145 0 011.042 1.836c0 .777-.417 1.457-1.042 1.835v1.572a10.809 10.809 0 002.272-.342V16.94h-2.272z"/><path fill="#A2224C" d="M17.136 18.334V16.94h-2.272v1.394c.33-.2.72-.315 1.136-.315.416 0 .805.115 1.136.315zM14.864 22.005v1.572l.12.006h.039c.725.004 1.41.008 1.99 0l.123-.006v-1.572c-.33.2-.72.316-1.136.316-.416 0-.805-.116-1.136-.316z"/><path fill="#DEB408" d="M14.889 20.56c-.394-.354-.396-1.075-.29-1.553.03-.133.067-.264.105-.413a2.017 2.017 0 00-.61 2.337c.035.005.07.007.107.007.304 0 .553-.139.688-.378zM17.005 20.715c-.068.34-.436.596-.783.8-.358.211-.935.32-1.369.34.328.218.722.345 1.147.345.775 0 1.45-.424 1.8-1.05-.061-.5-.543-.56-.795-.434z"/><path fill="#DEB408" d="M14.694 21.737c.428.003 1.087-.103 1.465-.326.488-.287.867-.594.687-1.02-.09-.215-.393-.464-.786-.19-.025.318-.422.598-.707.562a.866.866 0 01-.367-.128c-.16.27-.447.424-.785.424a.91.91 0 01-.05-.002c.13.264.316.496.543.68zM15.995 18.905c.34-.14.81.041 1.17.24.339.186.693.535.887.902a2.045 2.045 0 00-2.034-1.907c-.325.21-.28.607-.023.765z"/><path fill="#DEB408" d="M15.937 20.2a.775.775 0 01-.214-1.064.604.604 0 01.154-.166.558.558 0 01-.057-.823 2.06 2.06 0 00-.963.335c-.09.381-.204.73-.198 1.128.008.536.233.973.71 1.034.222.028.543-.206.568-.444z"/><path fill="#DEB408" d="M18.047 20.357c-.117-.42-.54-.885-.942-1.107-.496-.274-1.04-.423-1.278-.05a.655.655 0 00.173.895c.473-.322.85-.008.96.25a.673.673 0 01.055.235c.279-.097.732-.034.872.396.084-.193.14-.401.16-.62z"/><path fill="#000" d="M14.126 14.47H12.69v1.996h.438v-.823h.596v-.421h-.597v-.327h1.02v-.424h-.02zM14.962 15.468c0 .625.348 1.029.886 1.029.35 0 .603-.153.75-.453l.009-.017-.368-.216-.011.018c-.105.174-.205.238-.37.238-.267 0-.447-.24-.447-.599 0-.369.17-.598.445-.598.16 0 .272.065.343.2l.01.018.404-.184-.009-.02c-.142-.29-.399-.444-.742-.444-.53 0-.9.423-.9 1.028zM19.049 15.385a.451.451 0 00.194-.377c0-.336-.243-.537-.649-.537h-.927v1.995h.919c.454 0 .724-.244.724-.652a.466.466 0 00-.261-.429zm-.954-.512h.482c.197 0 .222.088.222.166 0 .11-.066.163-.202.163h-.502v-.33zm.505 1.18h-.505v-.463h.505c.178 0 .261.073.261.23 0 .153-.09.233-.261.233zM19.055 7.337c-.98.585-1.978.87-3.055.87-1.077 0-2.076-.285-3.055-.87l-.032-.02-.033.02c-1.115.622-2.096.743-3.414.743-.317 0-.643-.031-.971-.093l-.141-.027.072.123c1.354 2.288.873 4.5.232 5.954l-.04.09h14.764l-.04-.09c-.641-1.454-1.122-3.666.232-5.954l.072-.123-.14.027a5.242 5.242 0 01-.972.093c-1.318 0-2.299-.121-3.414-.744l-.033-.018-.032.02z"/><path fill="#fff" d="M11.472 8.025c-.619.145-1.26.184-2.006.184-.282 0-.573-.028-.864-.076a6.31 6.31 0 01.69 1.8h2.18V8.026zM15.935 9.934V8.335a5.799 5.799 0 01-2.247-.474v2.073h2.247zM9.354 12.123a7.589 7.589 0 01-.539 1.875h2.657v-1.875H9.354zM13.688 13.998h2.247v-1.875h-2.247v1.875z"/><path fill="#E03A3E" d="M13.688 9.934V7.86a6.725 6.725 0 01-.778-.395 5.563 5.563 0 01-1.438.56v1.908h-2.18a6 6 0 01.132 1.25c0 .324-.025.638-.07.939h2.118v1.875h2.216v-1.875h2.247v-2.19h-2.247z"/><path fill="#FFDF1C" d="M19.09 7.466c-.002 0-.003 0-.004.002v6.53h.78V7.824a5.857 5.857 0 01-.776-.358zM17.528 8.134v5.864h.78V7.863c-.258.11-.517.2-.78.27zM16.065 8.335v5.663h.684v-5.71a5.957 5.957 0 01-.684.047zM20.645 8.05v5.948h.779V8.166a6.671 6.671 0 01-.78-.116zM22.576 11.185c0-.956.223-1.995.822-3.053a5.34 5.34 0 01-.864.077c-.113 0-.223 0-.331-.003v5.792h.982c-.33-.771-.61-1.738-.61-2.813z"/><path fill="#E03A3E" d="M21.424 8.166v5.832h.779V8.206c-.272-.005-.53-.017-.78-.04zM16.75 8.288v5.71h.778V8.134c-.256.07-.515.12-.779.154zM18.307 7.863v6.135h.78v-6.53a6.707 6.707 0 01-.78.395zM19.866 7.824v6.174h.779V8.05a5.412 5.412 0 01-.78-.226z"/></svg>