<svg width="24" height="24" fill="none" xmlns="http://www.w3.org/2000/svg"><path d="M23.64 14.9A12 12 0 11.36 9.1a12 12 0 0123.28 5.8z" fill="#F5AC37"/><path d="M12.44 12.85H17c.1 0 .15 0 .15-.13a8.7 8.7 0 000-1.4c0-.09-.04-.12-.14-.12H7.94c-.12 0-.15.03-.15.14v1.34c0 .17 0 .17.18.17h4.47zm4.2-3.21a.15.15 0 000-.1 2.97 2.97 0 00-.27-.48 3.83 3.83 0 00-.55-.7 5.4 5.4 0 00-3.87-1.61H7.92c-.11 0-.13.04-.13.14v2.66c0 .12 0 .15.14.15h8.66s.07-.02.09-.06h-.04zm0 4.77a1.76 1.76 0 00-.38 0H7.94c-.11 0-.15 0-.15.15v2.6c0 .12 0 .15.15.15h3.84c.19.01.37 0 .55-.04a5.72 5.72 0 002.18-.61h.05c.9-.47 1.63-1.2 2.09-2.1 0 0 .05-.12 0-.15zM6.3 18.66v-4.15c0-.1 0-.11-.12-.11H4.54c-.1 0-.13 0-.13-.12v-1.42h1.74c.1 0 .14 0 .14-.13v-1.41c0-.1 0-.11-.12-.11H4.54c-.1 0-.13 0-.13-.12V9.77c0-.09 0-.1.12-.1h1.61c.12 0 .15 0 .15-.15V5.48c0-.12 0-.15.15-.15h5.62a7.33 7.33 0 013.56 1 6.62 6.62 0 012.13 2.02c.23.36.43.74.58 1.15.02.1.12.17.23.15h1.34c.17 0 .17 0 .18.17v1.23c0 .12-.05.15-.17.15h-1.03c-.1 0-.14 0-.13.13.04.46.04.92 0 1.38 0 .12 0 .14.14.14h1.19c.05.07 0 .13 0 .2v1.17c0 .13-.04.17-.15.17H18.5a.19.19 0 00-.22.14 6 6 0 01-1.57 2.3c-.26.22-.53.44-.8.64-.3.17-.6.35-.9.5a8.11 8.11 0 01-3.53.7h-5.2v-.01z" fill="#FEFEFD"/></svg>