<svg width="48" height="48" fill="none" xmlns="http://www.w3.org/2000/svg"><g clip-path="url(#clip0)"><path d="M24.017 48.034c13.264 0 24.017-10.753 24.017-24.017S37.28 0 24.017 0 0 10.753 0 24.017s10.753 24.017 24.017 24.017z" fill="#7866D5"/><path d="M33.739 12.33c.813.102 1.66.17 2.473.305 1.592.305 2.134 1.118 1.863 2.744-.068.61-.542 1.084-1.152 1.185a4.39 4.39 0 01-1.152.068c-5.284 0-10.535.034-15.819.034-.78 0-1.592.068-2.371.203-2.608.407-3.625 1.49-3.828 4.133-.102 1.22-.102 1.22 1.152 1.22h21.612c.338 0 .643.101.948.27.949.61.711 1.592.678 2.473-.034.712-.475 1.118-1.22 1.254-.305.067-.61.067-.948.067H14.43c-.78 0-.78 0-.712.78.034.71.102 1.422.271 2.134.339 1.287 1.118 2.1 2.44 2.472 1.422.407 2.912.475 4.369.509h15.413c.643 0 1.253.067 1.66.677.643 1.016.304 2.337-.712 2.981a1.05 1.05 0 01-.44.203c-1.118.373-2.27.44-3.455.474-4.844.102-9.655.102-14.465 0a24.392 24.392 0 01-4.437-.508c-3.421-.711-5.15-2.473-5.725-5.928-.136-.779-.203-1.592-.305-2.405v-6.3c.068-.61.136-1.254.203-1.863.44-3.896 2.202-5.827 6.03-6.708 1.355-.305 2.778-.372 4.133-.508l15.04.034z" fill="#fff"/><path d="M26.016 37.194c-2.44 0-4.844-.034-7.25-.068a22.764 22.764 0 01-4.539-.542c-3.692-.779-5.589-2.744-6.199-6.402a15.352 15.352 0 01-.203-1.694c-.034-.237-.068-.474-.102-.745v-6.436l.068-.61c.034-.44.102-.847.136-1.253.474-4.167 2.439-6.3 6.537-7.215 1.084-.237 2.135-.34 3.185-.44.338-.035.677-.069 1.016-.102H33.84c.238.034.509.067.746.067.576.068 1.151.102 1.761.238 1.931.372 2.676 1.456 2.338 3.42-.102.848-.78 1.559-1.694 1.694a7.507 7.507 0 01-1.254.102c-5.25.034-10.534.068-15.785.068-.745 0-1.524.068-2.27.203-2.337.373-3.116 1.22-3.32 3.59 0 .204-.033.407-.033.577h22.188c.44 0 .88.135 1.253.338 1.152.746 1.05 1.863.982 2.676 0 .102-.034.238-.034.34-.067.948-.643 1.591-1.693 1.795-.373.067-.712.067-1.05.067H14.329v.136c.034.711.101 1.389.27 2.066.272 1.05.915 1.694 2 1.999 1.456.406 2.947.474 4.234.474 3.997.034 8.062.034 12.025.034h3.388c.508 0 1.558 0 2.168.982.406.644.508 1.39.338 2.1a2.803 2.803 0 01-1.829 2c-1.253.406-2.54.473-3.625.507-2.405 0-4.844.034-7.282.034zM8.943 27.641c.034.238.068.475.068.712l.203 1.626c.542 3.184 2.066 4.742 5.25 5.42 1.423.305 2.88.474 4.336.508 4.777.102 9.654.102 14.465 0 .982-.034 2.168-.102 3.252-.44.101-.034.203-.102.304-.136.34-.237.61-.576.712-.982a1.483 1.483 0 00-.203-1.186c-.204-.305-.475-.406-1.118-.406h-3.388c-3.93 0-8.028 0-12.025-.034-1.355 0-2.947-.068-4.54-.542-1.524-.407-2.472-1.39-2.845-2.914a10.384 10.384 0 01-.27-2.27v-.033c-.035-.474-.069-.813.203-1.118.27-.305.643-.305 1.117-.305h21.544c.271 0 .576 0 .847-.067.542-.102.678-.34.712-.678 0-.136.034-.237.034-.373.067-.846.067-1.253-.407-1.558a1.268 1.268 0 00-.61-.17h-21.68c-.745 0-1.185 0-1.524-.338-.338-.339-.27-.813-.237-1.524.237-2.913 1.457-4.235 4.336-4.675a19.729 19.729 0 012.473-.237c5.284 0 10.535-.034 15.82-.034.372 0 .71 0 1.05-.068a.721.721 0 00.643-.643c.237-1.355-.102-1.796-1.389-2.067a13.313 13.313 0 00-1.626-.203 5.534 5.534 0 00-.745-.068H18.733l-1.017.102c-1.05.102-2.032.17-3.048.407-3.557.88-5.115 2.608-5.522 6.266-.034.407-.102.813-.135 1.254l-.068.575v6.2z" fill="#fff"/></g><defs><clipPath id="clip0"><path fill="#fff" d="M0 0h48v48H0z"/></clipPath></defs></svg>