<svg xmlns="http://www.w3.org/2000/svg" fill="none" viewBox="0 0 32 32"><circle cx="16" cy="16" r="16" fill="#FFA800"/><path fill="#B6002E" d="M32 16a16 16 0 01-16 16V16 0a16 16 0 0116 16z"/><path fill="#fff" d="M10.42 17.29c0-4.25 2.5-7.69 5.59-7.69s5.59 3.44 5.59 7.69c0 4.24-2.5 7.68-5.59 7.68s-5.59-3.44-5.59-7.68z"/><path fill="#B6002E" fill-rule="evenodd" d="M19.83 17.9c.21.95.09 1.95-.35 2.81a3.94 3.94 0 01-2.04 1.88c-.88.35-1.84.36-2.73.03a3.93 3.93 0 01-2.07-1.83 4.17 4.17 0 011.05-5.19 3.8 3.8 0 015.1.36l-.64.67a2.94 2.94 0 00-2.12-.91c-.6 0-1.17.18-1.66.52a3.22 3.22 0 00-.45 4.79 2.9 2.9 0 003.27.67 3.03 3.03 0 001.34-1.15c.33-.5.5-1.1.5-1.72h-1.12v-.93h1.92z" clip-rule="evenodd"/><path fill="#FFA800" fill-rule="evenodd" d="M15.4 14.65a1.2 1.2 0 01-.3-1.57 1.08 1.08 0 011.5-.36c.17.1.31.25.4.42.1.18.15.37.15.57h.88a2.13 2.13 0 00-.96-1.77 1.94 1.94 0 00-2.7.63 2.13 2.13 0 00.5 2.83l2.42 1.68c.6.48.83 1.28.83 1.75a2.2 2.2 0 01-.62 1.52 2.05 2.05 0 01-2.94 0 2.2 2.2 0 01-.42-2.45h-.86a3.1 3.1 0 00.7 3.04 2.79 2.79 0 004.23-.15 3.04 3.04 0 00.49-3.08c-.2-.51-.53-.95-.95-1.28l-2.35-1.78z" clip-rule="evenodd"/><path fill="#960026" fill-rule="evenodd" d="M19.03 18.83h-1.12v-.93h1.92c.06.3.1.62.1.93h-.9z" clip-rule="evenodd"/><path fill="#000" fill-rule="evenodd" d="M15 18.83h-.19v-.65h-.22v-.12l.12-.01c.03 0 .06-.02.08-.04a.26.26 0 00.06-.05.13.13 0 00.02-.07H15v.94zM15.35 18.61a.09.09 0 00.03.07l.03.03a.1.1 0 00.04 0h.01c.03.01.06 0 .08-.02a.14.14 0 00.04-.06.47.47 0 00.03-.14v-.04a.17.17 0 01-.08.06.44.44 0 01-.05.02h-.07l-.05-.01a.27.27 0 01-.16-.15.42.42 0 01-.04-.16c0-.07.02-.13.04-.18a.3.3 0 01.1-.12.27.27 0 01.2-.04c.05 0 .1.02.14.05a.2.2 0 01.1.13l.04.13v.16l-.01.2a.64.64 0 01-.06.19.23.23 0 01-.12.1.38.38 0 01-.14.03.25.25 0 01-.21-.09.22.22 0 01-.06-.16h.17zm.11-.58a.1.1 0 00-.09.03.21.21 0 00-.04.07.27.27 0 000 .14.2.2 0 00.05.07.13.13 0 00.09.03.12.12 0 00.09-.03.18.18 0 00.04-.07l.01-.07-.01-.08a.11.11 0 00-.08-.09.16.16 0 00-.06 0zM15.97 18.77a.4.4 0 01-.07-.17 1.25 1.25 0 010-.46c0-.06.03-.12.06-.17a.24.24 0 01.1-.07.33.33 0 01.13-.03l.12.03c.04.01.08.04.1.07.04.05.06.1.07.16a1.22 1.22 0 010 .47c0 .06-.03.12-.06.16a.24.24 0 01-.1.08.33.33 0 01-.13.02c-.04 0-.09 0-.13-.02a.22.22 0 01-.1-.07zm.33-.14a.91.91 0 00.02-.26c0-.08 0-.16-.02-.24a.11.11 0 00-.04-.07.13.13 0 00-.07-.02c-.02 0-.05 0-.07.02a.11.11 0 00-.05.06.97.97 0 00-.01.25l.01.24.05.07.07.02c.02 0 .04 0 .07-.02a.09.09 0 00.04-.05zM16.76 18.59c0 .03 0 .06.03.09a.14.14 0 00.1.03.1.1 0 00.06-.01l.05-.04a.24.24 0 00.03-.13.2.2 0 00-.03-.12.13.13 0 00-.1-.06h-.02c-.03 0-.05 0-.07.02a.1.1 0 00-.04.05h-.16l.08-.53h.49v.17h-.38l-.03.2a.34.34 0 01.16-.06h.04a.5.5 0 01.09.03c.04.02.08.06.1.1.04.06.05.12.05.19s-.01.13-.05.19a.33.33 0 01-.1.12.3.3 0 01-.16.03l-.13-.01a.34.34 0 01-.1-.06.28.28 0 01-.06-.08.26.26 0 01-.03-.12h.18z" clip-rule="evenodd"/><path fill="#fff" fill-rule="evenodd" d="M13.12 9.83l-1.06-.5.13-1.16-.77.89-1.2-.54.63 1.19-.76.88 1.1-.25.58 1.04.2-1.22 1.15-.33zM18.9 9.83l1.06-.5-.13-1.16.77.89 1.2-.54-.64 1.19.77.88-1.1-.25-.59 1.04-.2-1.22-1.15-.33zM15.69 8.74l-.67-.99.68-.93-1.1.36-.77-1.1-.04 1.36-1.09.36 1.07.36v1.2l.77-.94 1.15.32zM16.33 8.74l.67-.99-.68-.93 1.1.36.77-1.1.04 1.36 1.09.36-1.07.36v1.2l-.77-.94-1.15.32z" clip-rule="evenodd"/></svg>