<svg xmlns="http://www.w3.org/2000/svg" fill="none" viewBox="0 0 32 32"><path fill="#fff" d="M32 16a16 16 0 11-32 0 16 16 0 0132 0z"/><path fill="#1A114A" fill-rule="evenodd" d="M16 30.53a14.53 14.53 0 100-29.06 14.53 14.53 0 000 29.06zm0 .97a15.5 15.5 0 100-31 15.5 15.5 0 000 31z" clip-rule="evenodd"/><g fill="#000" clip-path="url(#clip0)"><path d="M11.81 5.54V7.2a.7.7 0 01-.18.51c-.12.12-.3.19-.54.19h-.07v-.37h.07c.11 0 .2-.02.26-.08.06-.05.1-.14.1-.26V5.9h-.35v-.35h.71zM12.5 7.57h.33V5.54h.38v2c0 .25-.13.37-.38.37h-.34c-.25 0-.37-.12-.37-.37v-2h.37v2.03zM13.89 7.51c.1 0 .17-.05.23-.15.07-.12.1-.25.1-.38V5.54h.37v1.45c0 .3-.08.52-.24.67-.16.16-.38.24-.67.24h-.18V5.54h.37v1.97h.02zM15.77 5.9h-.51v.62h.42l-.06.35h-.36v.67h.54l-.06.36h-.86V5.54h.83l.06.36zM16.74 6.4v-.86h.35V7.9h-.35v-.8l-.35-.81h-.02v1.6h-.35V5.55h.34l.36.87h.02zM18.3 5.54l.07.37H18V7.9h-.37V5.9h-.36l.06-.37h.96zM18.93 7.57h.34V5.54h.37v2c0 .25-.12.37-.37.37h-.34c-.25 0-.37-.12-.37-.37v-2h.37v2.03zM20.28 7.12v.46h.32v-.32c0-.06 0-.13-.03-.18a.36.36 0 00-.12-.13l-.33-.23a.41.41 0 01-.14-.17.48.48 0 01-.05-.2V5.9c0-.12.03-.21.1-.28a.34.34 0 01.24-.1h.34c.13 0 .21.03.27.1.05.06.08.15.08.28v.3l-.37.11v-.47h-.31v.36l.03.15c.03.05.07.08.11.11l.32.22c.07.05.13.1.16.18a.5.5 0 01.06.24v.46c0 .12-.03.21-.1.27a.37.37 0 01-.25.08h-.32c-.13 0-.22-.02-.28-.08-.06-.06-.1-.15-.1-.27v-.44h.37zM11.03 11.6V9.74h5.99v8.59c0 2.8-.76 3.83-4.5 5.58a6.58 6.58 0 01-1.01-1.8c1.53-.72 2-1.03 2-1.03 1.18-.75 1.5-1.21 1.5-3.13V11.6h-3.98z"/><path d="M18.94 9.74h2.04v9.41c0 2.1-.61 3.92-1.92 5.24-.68.7-1.84 1.5-3.06 2.08-.88-.45-1.3-.7-1.96-1.15 3.32-1.7 4.9-2.8 4.9-6.73V9.74z"/></g><defs><clipPath id="clip0"><path fill="#fff" d="M0 0h10v21H0z" transform="translate(11 5.5)"/></clipPath></defs></svg>