<svg fill="none" height="32" viewBox="0 0 32 32" width="32" xmlns="http://www.w3.org/2000/svg"><path d="m31.521 19.87c-2.137 8.572-10.82 13.788-19.393 11.651-8.57-2.137-13.787-10.819-11.649-19.39 2.137-8.571 10.819-13.79 19.391-11.651 8.573 2.137 13.79 10.82 11.652 19.392z" fill="#375bd2"/><path d="m16.003 9.853 5.387 3.063v6.149l-5.373 3.082-5.387-3.058v-6.149zm0-4.52-1.977 1.135-5.382 3.087-1.977 1.135v10.664l1.977 1.125 5.386 3.063 1.977 1.125 1.977-1.135 5.372-3.087 1.977-1.13v-10.67l-1.976-1.124-5.387-3.063-1.977-1.125z" fill="#fff"/></svg>