<svg width="48" height="48" fill="none" xmlns="http://www.w3.org/2000/svg"><path d="M24 48c13.255 0 24-10.745 24-24S37.255 0 24 0 0 10.745 0 24s10.745 24 24 24z" fill="url(#paint0_linear)"/><path fill-rule="evenodd" clip-rule="evenodd" d="M17.004 15.6v18h15l-15-18z" fill="url(#paint1_linear)"/><path fill-rule="evenodd" clip-rule="evenodd" d="M2.004 33.6h15v-18l-15 18z" fill="#fff"/><path fill-rule="evenodd" clip-rule="evenodd" d="M4.8 38.4a24.58 24.58 0 004.8 4.8h28.8a24.58 24.58 0 004.8-4.8H4.8z" fill="#FC9965"/><path fill-rule="evenodd" clip-rule="evenodd" d="M9.6 43.2A23.9 23.9 0 0024 48a23.9 23.9 0 0014.4-4.8H9.6z" fill="#FF2D55"/><path fill-rule="evenodd" clip-rule="evenodd" d="M32.196 25.2v13.2H43.2L32.196 25.2z" fill="url(#paint2_linear)"/><path fill-rule="evenodd" clip-rule="evenodd" d="M32.196 33.6H2.004A23.898 23.898 0 004.8 38.4h27.408v-4.8h-.012z" fill="#FFBC5B"/><path fill-rule="evenodd" clip-rule="evenodd" d="M21.204 38.4h10.992V25.2L21.204 38.4z" fill="#fff"/><path d="M32.196 21.6a6 6 0 100-12 6 6 0 000 12zM17.004 12a3 3 0 100-6 3 3 0 000 6z" fill="#FFC95B"/><defs><linearGradient id="paint0_linear" x1="40.97" y1="7.03" x2="7.03" y2="40.97" gradientUnits="userSpaceOnUse"><stop stop-color="#FF2D55"/><stop offset="1" stop-color="#FFBC5B"/></linearGradient><linearGradient id="paint1_linear" x1="24.499" y1="15.6" x2="24.499" y2="33.6" gradientUnits="userSpaceOnUse"><stop stop-color="#A524B3"/><stop offset="1" stop-color="#FF2D55"/></linearGradient><linearGradient id="paint2_linear" x1="37.694" y1="25.2" x2="37.694" y2="38.4" gradientUnits="userSpaceOnUse"><stop stop-color="#A524B3"/><stop offset="1" stop-color="#FF2D55"/></linearGradient></defs></svg>