<svg width="24" height="24" fill="none" xmlns="http://www.w3.org/2000/svg"><path d="M23.64 14.903c-1.602 6.428-8.114 10.34-14.544 8.738C2.669 22.038-1.244 15.527.359 9.098 1.962 2.67 8.473-1.244 14.902.36c6.43 1.603 10.342 8.115 8.739 14.544z" fill="#FF4A4A"/><g clip-path="url(#clip0)" fill="#fff"><path d="M14.816 14.5h-.847a.29.29 0 01-.29-.29v-2.226l-1.483.925a.383.383 0 01-.408 0l-1.474-.925v2.226a.29.29 0 01-.29.29h-.84a.29.29 0 01-.29-.29V9.915c0-.211.173-.384.384-.384.079 0 .15.024.212.07l2.338 1.607a.27.27 0 00.321 0l2.337-1.606a.388.388 0 01.604.313v4.295a.276.276 0 01-.274.29zM7.632 14.492H2.377a.385.385 0 01-.384-.384V9.79a.296.296 0 01.298-.29h.847a.29.29 0 01.29.29v3.284h3.184V9.79a.29.29 0 01.29-.29h.824a.29.29 0 01.29.29v4.318a.385.385 0 01-.384.384zM16.369 9.5h5.255c.211 0 .384.172.384.384v4.318c0 .157-.126.29-.282.29h-.848a.29.29 0 01-.29-.29v-3.095a.19.19 0 00-.188-.188h-2.8a.19.19 0 00-.188.188v3.095a.29.29 0 01-.29.29h-.848a.29.29 0 01-.29-.29V9.884c0-.212.173-.384.385-.384z"/><path d="M18.573 11.828h.839a.29.29 0 01.29.29v.854a.29.29 0 01-.29.29h-.84a.29.29 0 01-.29-.29v-.862c0-.157.134-.282.29-.282z"/></g><defs><clipPath id="clip0"><path fill="#fff" transform="translate(2 9.5)" d="M0 0h20v5H0z"/></clipPath></defs></svg>