<svg width="24" height="24" fill="none" xmlns="http://www.w3.org/2000/svg"><path d="M23.64 14.903c-1.602 6.428-8.114 10.34-14.544 8.738C2.669 22.038-1.244 15.527.359 9.098 1.962 2.67 8.473-1.244 14.902.36c6.43 1.603 10.342 8.115 8.739 14.544z" fill="#FF007A"/><path d="M9.31 6.037c-.186-.028-.195-.037-.106-.046.17-.028.561.009.838.074.642.158 1.22.567 1.836 1.282l.16.195.232-.037c.99-.168 2.005-.037 2.852.371.232.112.597.335.642.39.018.019.044.14.062.26.062.437.036.762-.098 1.013-.071.14-.071.176-.027.297a.268.268 0 00.24.158c.215 0 .438-.353.545-.845l.044-.195.08.092c.455.53.811 1.264.865 1.784l.018.14-.08-.122a1.545 1.545 0 00-.428-.473c-.303-.214-.624-.279-1.47-.325-.767-.047-1.204-.112-1.632-.26-.73-.251-1.105-.576-1.97-1.774-.383-.53-.623-.818-.864-1.06-.526-.529-1.052-.807-1.738-.919z" fill="#fff"/><path d="M15.95 7.217c.019-.353.063-.585.161-.799a.647.647 0 01.08-.158c.01 0-.008.065-.035.14-.071.204-.08.492-.036.817.063.418.09.473.517.929.196.213.428.482.517.594l.152.204-.152-.148c-.187-.186-.615-.539-.713-.585-.062-.038-.071-.038-.116.009-.035.037-.044.093-.044.362-.01.418-.063.678-.196.947-.072.14-.08.112-.018-.046.044-.12.053-.176.053-.576 0-.808-.089-1.003-.633-1.328a6.56 6.56 0 00-.499-.27 1.932 1.932 0 01-.24-.12c.018-.019.543.14.748.232.312.13.366.14.401.13.027-.028.045-.102.054-.334zM9.676 8.6c-.374-.538-.615-1.374-.561-1.996l.018-.195.089.018c.16.028.437.14.57.223.357.223.517.53.669 1.291.044.223.107.483.133.567a3.4 3.4 0 00.357.668c.098.15.035.223-.187.205-.339-.037-.794-.362-1.088-.78zM15.496 12.64c-1.764-.742-2.388-1.383-2.388-2.47 0-.158.009-.288.009-.288.009 0 .07.056.151.121.357.297.758.427 1.872.595.65.102 1.025.176 1.363.297 1.079.371 1.747 1.133 1.908 2.164.044.297.018.864-.054 1.16-.062.233-.24.66-.285.67-.009 0-.027-.047-.027-.121-.018-.39-.205-.762-.517-1.05-.374-.334-.855-.585-2.032-1.077zM14.248 12.947a2.28 2.28 0 00-.089-.39l-.044-.139.08.102c.116.14.205.307.285.539.063.176.063.232.063.52 0 .279-.01.344-.063.502-.089.25-.196.427-.374.622-.32.344-.74.53-1.337.613-.107.01-.41.037-.677.055-.669.038-1.114.112-1.516.26-.053.02-.106.038-.115.028-.018-.018.258-.185.48-.297.313-.158.634-.241 1.338-.371.347-.056.704-.13.793-.168.882-.287 1.32-1.003 1.177-1.876z" fill="#fff"/><path d="M15.06 14.443c-.232-.53-.286-1.031-.16-1.505.017-.046.035-.093.053-.093.018 0 .071.028.124.065.107.075.33.204.9.53.723.408 1.133.724 1.418 1.086.25.316.4.678.472 1.124.045.25.018.855-.044 1.105-.197.79-.642 1.421-1.293 1.784a1.208 1.208 0 01-.187.092c-.009 0 .027-.092.08-.204.214-.474.24-.929.08-1.44-.098-.315-.303-.696-.713-1.337-.49-.743-.606-.938-.73-1.207zM8.42 17.285c.66-.576 1.47-.985 2.219-1.115.32-.055.856-.037 1.15.047.472.13.9.408 1.123.752.213.334.312.622.41 1.263.035.251.08.511.089.567.071.334.214.594.392.733.276.214.757.223 1.23.038.08-.028.151-.056.151-.047.018.019-.223.186-.383.27-.223.12-.401.158-.642.158-.427 0-.793-.233-1.087-.697a5.313 5.313 0 01-.294-.613c-.312-.752-.472-.975-.838-1.226-.32-.214-.73-.26-1.043-.102a.715.715 0 00-.231 1.086.9.9 0 00.508.279c.33.046.615-.223.615-.567 0-.222-.08-.352-.294-.455-.286-.13-.598.019-.589.307 0 .12.054.195.17.25.07.038.07.038.017.028-.258-.055-.32-.39-.115-.603.25-.26.775-.149.953.213.072.149.08.446.018.632-.152.409-.58.622-1.016.502-.294-.084-.419-.168-.775-.549-.624-.668-.865-.798-1.756-.938l-.17-.027.188-.186z" fill="#fff"/><path fill-rule="evenodd" clip-rule="evenodd" d="M6.643 5.647C8.72 8.276 9.007 9.056 9.167 9.28c.134.185.08.362-.142.492a1.322 1.322 0 01-.508.148.631.631 0 01-.428-.195c-.08-.083-.428-.613-1.212-1.885a121.245 121.245 0 00-1.114-1.793c-.036-.018-.036-.018 1.051 2.007.687 1.272.91 1.727.91 1.783 0 .12-.036.186-.179.353-.24.278-.347.594-.428 1.254-.089.733-.33 1.254-1.016 2.136-.4.52-.463.613-.561.827-.125.26-.16.408-.178.743-.018.353.017.575.115.91.09.297.188.492.428.873.205.334.33.585.33.678 0 .074.018.074.339 0 .766-.186 1.399-.502 1.747-.892.213-.241.267-.371.267-.706 0-.213-.009-.26-.063-.39-.089-.204-.258-.371-.623-.631-.482-.344-.687-.623-.74-.994-.045-.316.009-.53.276-1.115.276-.603.348-.854.392-1.467.027-.39.072-.548.179-.669.115-.13.213-.176.49-.213.454-.066.748-.186.98-.418a.888.888 0 00.303-.678l.01-.214-.117-.13c-.419-.502-4.613-5.564-4.64-5.564-.008 0 1.439 1.895 1.608 2.118zm-.176 9.901a.393.393 0 00-.116-.51c-.152-.103-.383-.057-.383.083 0 .037.017.074.07.093.081.046.09.092.028.195-.063.102-.063.195.017.26.125.102.295.046.384-.121zM10.077 10.662c-.214.066-.418.307-.48.548-.037.15-.019.418.044.502.098.13.187.167.436.167.49 0 .91-.223.954-.492.045-.223-.143-.53-.401-.669a.873.873 0 00-.553-.056zm.57.465c.072-.112.045-.232-.088-.316-.241-.158-.606-.028-.606.214 0 .12.187.25.365.25.116 0 .276-.074.33-.148z" fill="#fff"/></svg>