<svg width="64" height="64" viewBox="0 0 64 65" fill="none" xmlns="http://www.w3.org/2000/svg"><g clip-path="url(#clip0)"><path d="M63.042 40.622c-4.274 17.143-21.64 27.576-38.786 23.3C7.116 59.65-3.318 42.286.959 25.144 5.23 7.998 22.596-2.436 39.738 1.838c17.145 4.274 27.579 21.64 23.304 38.784z" fill="#8D5ABA"/><mask id="a" maskUnits="userSpaceOnUse" x="0" y="0" width="64" height="65"><path d="M63.042 40.622c-4.274 17.143-21.64 27.576-38.786 23.3C7.116 59.65-3.318 42.286.959 25.144 5.23 7.998 22.596-2.436 39.738 1.838c17.145 4.274 27.579 21.64 23.304 38.784z" fill="#fff"/></mask><g mask="url(#a)"><path fill-rule="evenodd" clip-rule="evenodd" d="M32.001 51.548c11.782 0 21.334-6.566 21.334-14.666 0-8.1-9.552-14.667-21.334-14.667S10.668 28.78 10.668 36.882c0 8.1 9.551 14.666 21.333 14.666z" fill="#fff"/><path fill-rule="evenodd" clip-rule="evenodd" d="M20.001 30.215c5.155 0 9.334-3.582 9.334-8s-4.179-8-9.334-8c-5.154 0-9.333 3.582-9.333 8s4.179 8 9.333 8zM44.001 30.215c5.155 0 9.334-3.582 9.334-8s-4.179-8-9.334-8c-5.154 0-9.333 3.582-9.333 8s4.179 8 9.333 8z" fill="#fff"/><path fill-rule="evenodd" clip-rule="evenodd" d="M20 27.549a4 4 0 100-8 4 4 0 000 8zM44 27.549a4 4 0 100-8 4 4 0 000 8z" fill="#8D5ABA"/><path d="M9.334 39.549s11.333 2.666 22.667 2.666c11.333 0 22.666-2.666 22.666-2.666" stroke="#8D5ABA" stroke-linecap="square"/></g></g><defs><clipPath id="clip0"><path fill="#fff" transform="translate(0 .88)" d="M0 0h64v64H0z"/></clipPath></defs></svg>