<svg width="24" height="24" fill="none" xmlns="http://www.w3.org/2000/svg"><path d="M23.64 14.9A12 12 0 11.36 9.1a12 12 0 0123.28 5.8z" fill="#EEF3F4"/><path d="M18.55 16.15c.86 1.17 1.76 2.36 2.65 3.55a11.99 11.99 0 01-15.23 2.68l7.24-5.39 1.57 1.52c.57.54.35.57 1.08.16 1-.57 1.85-1.35 2.5-2.3.02-.06.08-.11.1-.16-.02 0 0 0 .09-.06zM7.89 18.53c-.67.52-1.3.98-1.92 1.47l-1.38 1.02c-.2.17-.33.17-.55-.02A11.73 11.73 0 01.2 14.18a11.82 11.82 0 011.25-7.8l.11-.19c0-.03.03-.03.08-.05l5.4 7.06-.14.2c-.54.56-1.08 1.13-1.65 1.67-.17.16-.2.3-.08.49a8.01 8.01 0 002.33 2.7l.4.27zM18 1.73c-.86.62-1.73 1.24-2.6 1.83-1.49 1.06-2.98 2.14-4.44 3.2-.2.13-.33.16-.5-.03-.48-.51-1-.97-1.48-1.49-.14-.13-.27-.16-.46-.08a7.88 7.88 0 00-3.01 2.7c-.44-.56-.84-1.07-1.25-1.62L3.01 4.57c-.13-.2-.16-.33.03-.52A11.84 11.84 0 0110.8.07a11.7 11.7 0 016.94 1.38c.09.06.17.08.25.14 0 .08 0 .1.02.13zm4.42 16.24l-1.6-2.09c-1.19-1.57-2.38-3.17-3.6-4.74-.16-.21-.16-.35.03-.54l1.51-1.54c.14-.14.2-.27.09-.46a8.03 8.03 0 00-2.47-2.84c-.08-.06-.16-.14-.27-.2l.21-.18c1.03-.79 2.06-1.54 3.1-2.33.16-.13.3-.19.48 0a11.94 11.94 0 012.52 14.92z" fill="#231815"/></svg>