<svg xmlns="http://www.w3.org/2000/svg" fill="none" viewBox="0 0 32 32"><path fill="#fff" d="M32 16a16 16 0 11-32 0 16 16 0 0132 0z"/><path fill="#1C2C4C" fill-rule="evenodd" d="M16 30.53a14.53 14.53 0 100-29.06 14.53 14.53 0 000 29.06zm0 .97a15.5 15.5 0 100-31 15.5 15.5 0 000 31z" clip-rule="evenodd"/><g fill-rule="evenodd" clip-path="url(#clip0)" clip-rule="evenodd"><path fill="#FBFBFB" d="M14.92 7.08a3809.33 3809.33 0 01-5.9 3.5c-.04.04-.06 10.72-.02 10.82.01.03.13.11.48.32a7628.05 7628.05 0 005.22 3.09c.41.24.48.27.5.23.02-.03.02-18.02 0-18.06-.03-.05-.04-.04-.28.1zm1.93-.11c-.02.02-.03 18.03 0 18.07l.05.02c.06-.01 6.1-3.59 6.14-3.63.05-.05.05-4.88 0-4.92a44 44 0 00-3 0c-.04.03-.04 1.53 0 1.55 0 .02.23.02.66.03.52 0 .66 0 .68.02.02.03.03.13.03 1.2v1.17l-.04.03c-.1.1-2.81 1.68-2.85 1.66-.04-.01-.03-12.3 0-12.32h.07l2.77 1.65c.04.02.04.05.05 1.68 0 1.33 0 1.66.03 1.68.04.04 1.58.03 1.6-.01.03-.03.03-.35.03-2.13v-2.1l-.04-.03a7776.11 7776.11 0 01-4.9-2.91c-1.26-.75-1.24-.75-1.28-.71zM13.56 9.9c.02.12 0 12.24-.02 12.26-.02.02-.03.02-.08 0-.1-.05-2.74-1.61-2.78-1.65l-.04-.04v-8.94l.05-.04 1.03-.6c2-1.19 1.82-1.1 1.84-1z"/><path fill="#1C2C4C" d="M15.64 4.6A362.42 362.42 0 0113.27 6a46.41 46.41 0 00-1.15.69 74.76 74.76 0 00-1.82 1.09 143.84 143.84 0 00-2.69 1.6l-.11.07v13.11l.3.17a212.2 212.2 0 002.8 1.68 277.09 277.09 0 013.19 1.9 123.79 123.79 0 011.6.96l.37.2h.53l.4-.22.75-.45a148.48 148.48 0 012.38-1.43 162.12 162.12 0 003.05-1.81l1.39-.83.24-.15V9.43l-.22-.13a187.6 187.6 0 00-3.13-1.87 40.24 40.24 0 01-1.22-.73 377.91 377.91 0 01-3.25-1.94l-.44-.26h-.44l-.16.1zm-.44 2.38c.02.04.02 18.03 0 18.06-.02.04-.09.01-.5-.23a1166.4 1166.4 0 00-5.22-3.1A2.1 2.1 0 019 21.4c-.04-.1-.02-10.78.02-10.82a3731.47 3731.47 0 005.9-3.5c.24-.14.25-.15.28-.1zm2.94.7a7542.08 7542.08 0 004.9 2.9l.03.05v2.1c0 1.77 0 2.09-.02 2.12-.03.04-1.57.05-1.61 0a17.7 17.7 0 01-.03-1.67c-.01-1.63-.01-1.66-.05-1.68-.07-.05-2.7-1.62-2.77-1.64-.02-.01-.05-.02-.07-.01-.03.01-.04 12.3 0 12.32.04.02 2.74-1.56 2.85-1.66l.04-.04v-1.16c0-1.07 0-1.17-.03-1.2a3.07 3.07 0 00-.68-.02c-.43 0-.65-.01-.67-.03-.03-.02-.03-1.52 0-1.55a44 44 0 013.01 0c.05.04.04 4.87 0 4.92-.04.04-6.08 3.62-6.14 3.63-.02 0-.04 0-.05-.02-.03-.04-.02-18.05 0-18.07.04-.04.02-.04 1.29.7zm-5.06 2.4l-2.39 1.41-.05.04v8.95l.04.03c.04.04 2.69 1.6 2.78 1.65.05.02.06.02.08 0 .02-.02.04-12.14.02-12.26-.02-.09-.06-.07-.48.17z"/></g><defs><clipPath id="clip0"><path fill="#fff" d="M0 0h17v23H0z" transform="translate(7.5 4.5)"/></clipPath></defs></svg>